<svg width="30" height="30" viewBox="0 0 30 30" fill="none" xmlns="http://www.w3.org/2000/svg">
<circle cx="14.6" cy="14.6" r="14.0525" stroke="#F9F9F9" stroke-width="1.095"/>
<path d="M13.7992 21.6836C13.6138 21.6836 13.4561 21.6279 13.3263 21.5166C13.215 21.3868 13.1594 21.2292 13.1594 21.0437V15.2575H7.45663C7.27118 15.2575 7.11354 15.2019 6.98372 15.0906C6.87245 14.9608 6.81681 14.8031 6.81681 14.6177V13.7275C6.81681 13.542 6.87245 13.3937 6.98372 13.2824C7.11354 13.1526 7.27118 13.0877 7.45663 13.0877H13.1594V7.46835C13.1594 7.28289 13.215 7.13453 13.3263 7.02325C13.4561 6.89343 13.6138 6.82852 13.7992 6.82852H14.7729C14.9583 6.82852 15.1067 6.89343 15.218 7.02325C15.3478 7.13453 15.4127 7.28289 15.4127 7.46835V13.0877H21.1433C21.3287 13.0877 21.4771 13.1526 21.5884 13.2824C21.7182 13.3937 21.7831 13.542 21.7831 13.7275V14.6177C21.7831 14.8031 21.7182 14.9608 21.5884 15.0906C21.4771 15.2019 21.3287 15.2575 21.1433 15.2575H15.4127V21.0437C15.4127 21.2292 15.3478 21.3868 15.218 21.5166C15.1067 21.6279 14.9583 21.6836 14.7729 21.6836H13.7992Z" fill="#F9F9F9"/>
</svg>
