<svg width="64" height="110" viewBox="0 0 64 110" fill="none" xmlns="http://www.w3.org/2000/svg">
<g filter="url(#filter0_d_146_1012)">
<rect x="9" y="5" width="46" height="92" rx="23" fill="#F8F8F8"/>
<circle cx="32" cy="28" r="22" fill="#553C9A"/>
<path d="M23 25.7313C23 22.0867 23 20.2644 24.1322 19.1322C25.2644 18 27.0867 18 30.7313 18H32.6641C36.3086 18 38.131 18 39.2631 19.1322C40.3954 20.2644 40.3954 22.0867 40.3954 25.7313V29.5969C40.3954 33.2414 40.3954 35.0638 39.2631 36.1959C38.131 37.3282 36.3086 37.3282 32.6641 37.3282H30.7313C27.0867 37.3282 25.2644 37.3282 24.1322 36.1959C23 35.0638 23 33.2414 23 29.5969V25.7313Z" stroke="white" stroke-width="1.44961"/>
<path d="M27.832 27.6641H35.5633" stroke="white" stroke-width="1.44961" stroke-linecap="round"/>
<path d="M27.832 23.7891H35.5633" stroke="white" stroke-width="1.44961" stroke-linecap="round"/>
<path d="M27.832 31.5312H32.6641" stroke="white" stroke-width="1.44961" stroke-linecap="round"/>
<path d="M40.4782 73.731C40.2203 73.731 39.9729 73.8335 39.7905 74.0159C39.6081 74.1983 39.5057 74.4456 39.5057 74.7036V80.5388C39.5057 80.7967 39.4032 81.0441 39.2208 81.2265C39.0384 81.4089 38.7911 81.5113 38.5331 81.5113H24.9176C24.6597 81.5113 24.4123 81.4089 24.2299 81.2265C24.0475 81.0441 23.9451 80.7967 23.9451 80.5388V66.9233C23.9451 66.6653 24.0475 66.418 24.2299 66.2356C24.4123 66.0532 24.6597 65.9507 24.9176 65.9507H30.7528C31.0108 65.9507 31.2581 65.8483 31.4405 65.6659C31.6229 65.4835 31.7254 65.2361 31.7254 64.9782C31.7254 64.7202 31.6229 64.4729 31.4405 64.2905C31.2581 64.1081 31.0108 64.0056 30.7528 64.0056H24.9176C24.1438 64.0056 23.4017 64.313 22.8545 64.8602C22.3074 65.4073 22 66.1495 22 66.9233V80.5388C22 81.3126 22.3074 82.0547 22.8545 82.6018C23.4017 83.149 24.1438 83.4564 24.9176 83.4564H38.5331C39.3069 83.4564 40.049 83.149 40.5962 82.6018C41.1434 82.0547 41.4508 81.3126 41.4508 80.5388V74.7036C41.4508 74.4456 41.3483 74.1983 41.1659 74.0159C40.9835 73.8335 40.7361 73.731 40.4782 73.731ZM25.8902 74.4701V78.5937C25.8902 78.8516 25.9926 79.099 26.175 79.2814C26.3574 79.4638 26.6048 79.5662 26.8627 79.5662H30.9862C31.1142 79.567 31.2411 79.5424 31.3596 79.4941C31.4781 79.4457 31.5859 79.3743 31.6767 79.2842L38.4067 72.5445L41.1687 69.8409C41.2599 69.7505 41.3322 69.6429 41.3816 69.5244C41.431 69.4059 41.4564 69.2787 41.4564 69.1504C41.4564 69.022 41.431 68.8949 41.3816 68.7763C41.3322 68.6578 41.2599 68.5503 41.1687 68.4599L37.0452 64.2877C36.9547 64.1965 36.8472 64.1242 36.7287 64.0748C36.6102 64.0254 36.483 64 36.3547 64C36.2263 64 36.0992 64.0254 35.9806 64.0748C35.8621 64.1242 35.7546 64.1965 35.6642 64.2877L32.9216 67.04L26.1722 73.7796C26.082 73.8705 26.0107 73.9783 25.9623 74.0968C25.9139 74.2153 25.8894 74.3422 25.8902 74.4701ZM36.3547 66.3495L39.1069 69.1017L37.7259 70.4827L34.9737 67.7305L36.3547 66.3495ZM27.8352 74.8689L33.6024 69.1017L36.3547 71.854L30.5875 77.6212H27.8352V74.8689Z" fill="#553C9A"/>
</g>
<defs>
<filter id="filter0_d_146_1012" x="0.1" y="0.1" width="63.8" height="109.8" filterUnits="userSpaceOnUse" color-interpolation-filters="sRGB">
<feFlood flood-opacity="0" result="BackgroundImageFix"/>
<feColorMatrix in="SourceAlpha" type="matrix" values="0 0 0 0 0 0 0 0 0 0 0 0 0 0 0 0 0 0 127 0" result="hardAlpha"/>
<feOffset dy="4"/>
<feGaussianBlur stdDeviation="4.45"/>
<feComposite in2="hardAlpha" operator="out"/>
<feColorMatrix type="matrix" values="0 0 0 0 0 0 0 0 0 0 0 0 0 0 0 0 0 0 0.14 0"/>
<feBlend mode="normal" in2="BackgroundImageFix" result="effect1_dropShadow_146_1012"/>
<feBlend mode="normal" in="SourceGraphic" in2="effect1_dropShadow_146_1012" result="shape"/>
</filter>
</defs>
</svg>
