<svg width="90" height="39" viewBox="0 0 90 39" fill="none" xmlns="http://www.w3.org/2000/svg">
<g filter="url(#filter0_ddii_146_1013)">
<g clip-path="url(#clip0_146_1013)">
<rect x="1" y="2" width="88" height="34.5799" rx="17.29" fill="#252D37"/>
<circle cx="70.3984" cy="19.1707" r="24.3252" fill="white" fill-opacity="0.1"/>
<circle cx="70.3986" cy="19.1707" r="34.3415" fill="white" fill-opacity="0.1"/>
<circle cx="70.3986" cy="19.1707" r="45.3117" fill="white" fill-opacity="0.1"/>
<path d="M11.3285 16.4102C10.9815 16.773 10.5594 16.9663 10.0625 16.9899C10.5594 17.0136 10.9815 17.2069 11.3285 17.5736C11.6756 17.9365 11.8491 18.3703 11.8491 18.8712C11.8491 18.5399 11.928 18.2362 12.0858 17.9523C12.2475 17.6683 12.4644 17.4395 12.7366 17.27C13.0126 17.0964 13.3124 17.0057 13.6397 16.9899C13.1388 16.9623 12.7168 16.773 12.3698 16.4102C12.0227 16.0473 11.8491 15.6174 11.8491 15.1165C11.8491 15.6174 11.6756 16.0473 11.3285 16.4102Z" fill="white"/>
<path d="M21.1611 7.4302C20.472 8.15061 19.6341 8.53431 18.6475 8.58129C19.6341 8.62828 20.472 9.01197 21.1611 9.74021C21.8502 10.4606 22.1947 11.322 22.1947 12.3165C22.1947 11.6587 22.3513 11.0557 22.6645 10.4919C22.9856 9.92815 23.4163 9.47398 23.9566 9.13726C24.5047 8.79272 25.0998 8.61262 25.7498 8.58129C24.7553 8.52648 23.9174 8.15061 23.2283 7.4302C22.5392 6.70979 22.1947 5.85626 22.1947 4.86179C22.1947 5.85626 21.8502 6.70979 21.1611 7.4302Z" fill="white"/>
<path d="M42.753 14.4566C42.2902 14.9404 41.7275 15.1981 41.0649 15.2296C41.7275 15.2612 42.2902 15.5188 42.753 16.0079C43.2158 16.4917 43.4471 17.0702 43.4471 17.738C43.4471 17.2963 43.5523 16.8914 43.7627 16.5127C43.9783 16.1341 44.2675 15.8291 44.6303 15.603C44.9985 15.3716 45.3981 15.2506 45.8346 15.2296C45.1667 15.1928 44.6041 14.9404 44.1413 14.4566C43.6785 13.9728 43.4471 13.3996 43.4471 12.7317C43.4471 13.3996 43.2158 13.9728 42.753 14.4566Z" fill="white"/>
<path d="M31.9479 11.4935C31.8322 11.6145 31.6915 11.6789 31.5259 11.6868C31.6915 11.6947 31.8322 11.7591 31.9479 11.8814C32.0636 12.0023 32.1214 12.1469 32.1214 12.3139C32.1214 12.2035 32.1477 12.1022 32.2003 12.0076C32.2542 11.9129 32.3265 11.8367 32.4172 11.7801C32.5093 11.7223 32.6092 11.692 32.7183 11.6868C32.5513 11.6776 32.4107 11.6145 32.295 11.4935C32.1793 11.3726 32.1214 11.2293 32.1214 11.0623C32.1214 11.2293 32.0636 11.3726 31.9479 11.4935Z" fill="white"/>
<path d="M30.139 21.3778C29.9308 21.5955 29.6776 21.7115 29.3794 21.7257C29.6776 21.7399 29.9308 21.8558 30.139 22.0759C30.3473 22.2936 30.4514 22.5539 30.4514 22.8545C30.4514 22.6557 30.4987 22.4735 30.5934 22.3031C30.6904 22.1327 30.8205 21.9954 30.9838 21.8937C31.1495 21.7896 31.3293 21.7351 31.5257 21.7257C31.2252 21.7091 30.972 21.5955 30.7637 21.3778C30.5555 21.1601 30.4514 20.9022 30.4514 20.6016C30.4514 20.9022 30.3473 21.1601 30.139 21.3778Z" fill="white"/>
<path d="M46.5941 25.6705C46.3858 25.8882 46.1326 26.0042 45.8345 26.0184C46.1326 26.0326 46.3858 26.1485 46.5941 26.3686C46.8023 26.5863 46.9065 26.8466 46.9065 27.1471C46.9065 26.9484 46.9538 26.7662 47.0484 26.5958C47.1455 26.4254 47.2756 26.2881 47.4389 26.1864C47.6046 26.0823 47.7844 26.0278 47.9808 26.0184C47.6803 26.0018 47.4271 25.8882 47.2188 25.6705C47.0106 25.4528 46.9065 25.1949 46.9065 24.8943C46.9065 25.1949 46.8023 25.4528 46.5941 25.6705Z" fill="white"/>
<path d="M17.4742 24.1752C17.0114 24.659 16.4487 24.9167 15.7861 24.9482C16.4487 24.9798 17.0114 25.2374 17.4742 25.7265C17.9369 26.2103 18.1683 26.7888 18.1683 27.4566C18.1683 27.0149 18.2735 26.61 18.4838 26.2313C18.6995 25.8527 18.9887 25.5477 19.3515 25.3216C19.7196 25.0902 20.1193 24.9692 20.5558 24.9482C19.8879 24.9114 19.3252 24.659 18.8625 24.1752C18.3997 23.6914 18.1683 23.1182 18.1683 22.4503C18.1683 23.1182 17.9369 23.6914 17.4742 24.1752Z" fill="white"/>
<path d="M37.1688 30.3284C36.7986 30.7154 36.3484 30.9216 35.8184 30.9468C36.3484 30.9721 36.7986 31.1782 37.1688 31.5695C37.539 31.9565 37.7241 32.4193 37.7241 32.9535C37.7241 32.6002 37.8083 32.2762 37.9765 31.9733C38.149 31.6704 38.3804 31.4264 38.6707 31.2455C38.9652 31.0604 39.2849 30.9637 39.6341 30.9468C39.0998 30.9174 38.6496 30.7154 38.2794 30.3284C37.9092 29.9414 37.7241 29.4828 37.7241 28.9485C37.7241 29.4828 37.539 29.9414 37.1688 30.3284Z" fill="white"/>
<path d="M37.4907 20.1327C37.4246 20.2018 37.3442 20.2386 37.2495 20.2431C37.3442 20.2477 37.4246 20.2845 37.4907 20.3544C37.5569 20.4235 37.59 20.5062 37.59 20.6016C37.59 20.5385 37.605 20.4806 37.635 20.4265C37.6659 20.3724 37.7072 20.3288 37.759 20.2965C37.8116 20.2634 37.8688 20.2461 37.9311 20.2431C37.8357 20.2379 37.7553 20.2018 37.6892 20.1327C37.623 20.0635 37.59 19.9816 37.59 19.8862C37.59 19.9816 37.5569 20.0635 37.4907 20.1327Z" fill="white"/>
<g filter="url(#filter1_dd_146_1013)">
<g clip-path="url(#clip1_146_1013)">
<g filter="url(#filter2_ii_146_1013)">
<circle cx="70.5177" cy="19.29" r="15.1436" fill="#ECCD2D"/>
</g>
<g filter="url(#filter3_ii_146_1013)">
<circle cx="70.5177" cy="19.29" r="15.1436" fill="#C9C9C9"/>
</g>
<g filter="url(#filter4_i_146_1013)">
<circle cx="69.802" cy="12.1355" r="2.0271" fill="#889399"/>
</g>
<g filter="url(#filter5_i_146_1013)">
<circle cx="66.8211" cy="22.5095" r="5.00813" fill="#889399"/>
</g>
<g filter="url(#filter6_i_146_1013)">
<circle cx="78.507" cy="22.271" r="3.10027" fill="#889399"/>
</g>
</g>
</g>
</g>
</g>
<defs>
<filter id="filter0_ddii_146_1013" x="0.0460705" y="0.0921409" width="89.9079" height="38.3957" filterUnits="userSpaceOnUse" color-interpolation-filters="sRGB">
<feFlood flood-opacity="0" result="BackgroundImageFix"/>
<feColorMatrix in="SourceAlpha" type="matrix" values="0 0 0 0 0 0 0 0 0 0 0 0 0 0 0 0 0 0 127 0" result="hardAlpha"/>
<feOffset dy="0.95393"/>
<feGaussianBlur stdDeviation="0.476965"/>
<feComposite in2="hardAlpha" operator="out"/>
<feColorMatrix type="matrix" values="0 0 0 0 1 0 0 0 0 1 0 0 0 0 1 0 0 0 0.94 0"/>
<feBlend mode="normal" in2="BackgroundImageFix" result="effect1_dropShadow_146_1013"/>
<feColorMatrix in="SourceAlpha" type="matrix" values="0 0 0 0 0 0 0 0 0 0 0 0 0 0 0 0 0 0 127 0" result="hardAlpha"/>
<feOffset dy="-0.95393"/>
<feGaussianBlur stdDeviation="0.476965"/>
<feComposite in2="hardAlpha" operator="out"/>
<feColorMatrix type="matrix" values="0 0 0 0 0 0 0 0 0 0 0 0 0 0 0 0 0 0 0.25 0"/>
<feBlend mode="normal" in2="effect1_dropShadow_146_1013" result="effect2_dropShadow_146_1013"/>
<feBlend mode="normal" in="SourceGraphic" in2="effect2_dropShadow_146_1013" result="shape"/>
<feColorMatrix in="SourceAlpha" type="matrix" values="0 0 0 0 0 0 0 0 0 0 0 0 0 0 0 0 0 0 127 0" result="hardAlpha"/>
<feOffset dy="1.66938"/>
<feGaussianBlur stdDeviation="1.07317"/>
<feComposite in2="hardAlpha" operator="arithmetic" k2="-1" k3="1"/>
<feColorMatrix type="matrix" values="0 0 0 0 0 0 0 0 0 0 0 0 0 0 0 0 0 0 0.25 0"/>
<feBlend mode="normal" in2="shape" result="effect3_innerShadow_146_1013"/>
<feColorMatrix in="SourceAlpha" type="matrix" values="0 0 0 0 0 0 0 0 0 0 0 0 0 0 0 0 0 0 127 0" result="hardAlpha"/>
<feOffset dy="-1.19241"/>
<feGaussianBlur stdDeviation="1.66938"/>
<feComposite in2="hardAlpha" operator="arithmetic" k2="-1" k3="1"/>
<feColorMatrix type="matrix" values="0 0 0 0 0 0 0 0 0 0 0 0 0 0 0 0 0 0 0.25 0"/>
<feBlend mode="normal" in2="effect3_innerShadow_146_1013" result="effect4_innerShadow_146_1013"/>
</filter>
<filter id="filter1_dd_146_1013" x="54.4201" y="3.90785" width="34.1028" height="34.103" filterUnits="userSpaceOnUse" color-interpolation-filters="sRGB">
<feFlood flood-opacity="0" result="BackgroundImageFix"/>
<feColorMatrix in="SourceAlpha" type="matrix" values="0 0 0 0 0 0 0 0 0 0 0 0 0 0 0 0 0 0 127 0" result="hardAlpha"/>
<feOffset dx="0.95393" dy="1.66938"/>
<feGaussianBlur stdDeviation="0.95393"/>
<feComposite in2="hardAlpha" operator="out"/>
<feColorMatrix type="matrix" values="0 0 0 0 0 0 0 0 0 0 0 0 0 0 0 0 0 0 0.25 0"/>
<feBlend mode="normal" in2="BackgroundImageFix" result="effect1_dropShadow_146_1013"/>
<feColorMatrix in="SourceAlpha" type="matrix" values="0 0 0 0 0 0 0 0 0 0 0 0 0 0 0 0 0 0 127 0" result="hardAlpha"/>
<feOffset dy="0.95393"/>
<feGaussianBlur stdDeviation="0.476965"/>
<feComposite in2="hardAlpha" operator="out"/>
<feColorMatrix type="matrix" values="0 0 0 0 0 0 0 0 0 0 0 0 0 0 0 0 0 0 0.25 0"/>
<feBlend mode="normal" in2="effect1_dropShadow_146_1013" result="effect2_dropShadow_146_1013"/>
<feBlend mode="normal" in="SourceGraphic" in2="effect2_dropShadow_146_1013" result="shape"/>
</filter>
<filter id="filter2_ii_146_1013" x="55.374" y="3.1924" width="31.0026" height="32.1951" filterUnits="userSpaceOnUse" color-interpolation-filters="sRGB">
<feFlood flood-opacity="0" result="BackgroundImageFix"/>
<feBlend mode="normal" in="SourceGraphic" in2="BackgroundImageFix" result="shape"/>
<feColorMatrix in="SourceAlpha" type="matrix" values="0 0 0 0 0 0 0 0 0 0 0 0 0 0 0 0 0 0 127 0" result="hardAlpha"/>
<feOffset dx="0.715447" dy="0.95393"/>
<feGaussianBlur stdDeviation="0.476965"/>
<feComposite in2="hardAlpha" operator="arithmetic" k2="-1" k3="1"/>
<feColorMatrix type="matrix" values="0 0 0 0 1 0 0 0 0 1 0 0 0 0 1 0 0 0 0.6 0"/>
<feBlend mode="normal" in2="shape" result="effect1_innerShadow_146_1013"/>
<feColorMatrix in="SourceAlpha" type="matrix" values="0 0 0 0 0 0 0 0 0 0 0 0 0 0 0 0 0 0 127 0" result="hardAlpha"/>
<feOffset dy="-1.19241"/>
<feGaussianBlur stdDeviation="0.476965"/>
<feComposite in2="hardAlpha" operator="arithmetic" k2="-1" k3="1"/>
<feColorMatrix type="matrix" values="0 0 0 0 0.51172 0 0 0 0 0.520028 0 0 0 0 0.123306 0 0 0 1 0"/>
<feBlend mode="normal" in2="effect1_innerShadow_146_1013" result="effect2_innerShadow_146_1013"/>
</filter>
<filter id="filter3_ii_146_1013" x="55.374" y="3.1924" width="31.0026" height="32.1951" filterUnits="userSpaceOnUse" color-interpolation-filters="sRGB">
<feFlood flood-opacity="0" result="BackgroundImageFix"/>
<feBlend mode="normal" in="SourceGraphic" in2="BackgroundImageFix" result="shape"/>
<feColorMatrix in="SourceAlpha" type="matrix" values="0 0 0 0 0 0 0 0 0 0 0 0 0 0 0 0 0 0 127 0" result="hardAlpha"/>
<feOffset dx="0.715447" dy="0.95393"/>
<feGaussianBlur stdDeviation="0.476965"/>
<feComposite in2="hardAlpha" operator="arithmetic" k2="-1" k3="1"/>
<feColorMatrix type="matrix" values="0 0 0 0 1 0 0 0 0 1 0 0 0 0 1 0 0 0 0.6 0"/>
<feBlend mode="normal" in2="shape" result="effect1_innerShadow_146_1013"/>
<feColorMatrix in="SourceAlpha" type="matrix" values="0 0 0 0 0 0 0 0 0 0 0 0 0 0 0 0 0 0 127 0" result="hardAlpha"/>
<feOffset dy="-1.19241"/>
<feGaussianBlur stdDeviation="0.476965"/>
<feComposite in2="hardAlpha" operator="arithmetic" k2="-1" k3="1"/>
<feColorMatrix type="matrix" values="0 0 0 0 0.421667 0 0 0 0 0.421667 0 0 0 0 0.421667 0 0 0 1 0"/>
<feBlend mode="normal" in2="effect1_innerShadow_146_1013" result="effect2_innerShadow_146_1013"/>
</filter>
<filter id="filter4_i_146_1013" x="67.7749" y="10.1084" width="4.0542" height="4.29268" filterUnits="userSpaceOnUse" color-interpolation-filters="sRGB">
<feFlood flood-opacity="0" result="BackgroundImageFix"/>
<feBlend mode="normal" in="SourceGraphic" in2="BackgroundImageFix" result="shape"/>
<feColorMatrix in="SourceAlpha" type="matrix" values="0 0 0 0 0 0 0 0 0 0 0 0 0 0 0 0 0 0 127 0" result="hardAlpha"/>
<feOffset dy="0.238482"/>
<feGaussianBlur stdDeviation="0.476965"/>
<feComposite in2="hardAlpha" operator="arithmetic" k2="-1" k3="1"/>
<feColorMatrix type="matrix" values="0 0 0 0 0 0 0 0 0 0 0 0 0 0 0 0 0 0 0.25 0"/>
<feBlend mode="normal" in2="shape" result="effect1_innerShadow_146_1013"/>
</filter>
<filter id="filter5_i_146_1013" x="61.813" y="17.5013" width="10.0161" height="10.2547" filterUnits="userSpaceOnUse" color-interpolation-filters="sRGB">
<feFlood flood-opacity="0" result="BackgroundImageFix"/>
<feBlend mode="normal" in="SourceGraphic" in2="BackgroundImageFix" result="shape"/>
<feColorMatrix in="SourceAlpha" type="matrix" values="0 0 0 0 0 0 0 0 0 0 0 0 0 0 0 0 0 0 127 0" result="hardAlpha"/>
<feOffset dy="0.238482"/>
<feGaussianBlur stdDeviation="0.476965"/>
<feComposite in2="hardAlpha" operator="arithmetic" k2="-1" k3="1"/>
<feColorMatrix type="matrix" values="0 0 0 0 0 0 0 0 0 0 0 0 0 0 0 0 0 0 0.25 0"/>
<feBlend mode="normal" in2="shape" result="effect1_innerShadow_146_1013"/>
</filter>
<filter id="filter6_i_146_1013" x="75.4067" y="19.1707" width="6.20068" height="6.43901" filterUnits="userSpaceOnUse" color-interpolation-filters="sRGB">
<feFlood flood-opacity="0" result="BackgroundImageFix"/>
<feBlend mode="normal" in="SourceGraphic" in2="BackgroundImageFix" result="shape"/>
<feColorMatrix in="SourceAlpha" type="matrix" values="0 0 0 0 0 0 0 0 0 0 0 0 0 0 0 0 0 0 127 0" result="hardAlpha"/>
<feOffset dy="0.238482"/>
<feGaussianBlur stdDeviation="0.476965"/>
<feComposite in2="hardAlpha" operator="arithmetic" k2="-1" k3="1"/>
<feColorMatrix type="matrix" values="0 0 0 0 0 0 0 0 0 0 0 0 0 0 0 0 0 0 0.25 0"/>
<feBlend mode="normal" in2="shape" result="effect1_innerShadow_146_1013"/>
</filter>
<clipPath id="clip0_146_1013">
<rect x="1" y="2" width="88" height="34.5799" rx="17.29" fill="white"/>
</clipPath>
<clipPath id="clip1_146_1013">
<rect x="55.374" y="4.14633" width="30.2873" height="30.2873" rx="15.1436" fill="white"/>
</clipPath>
</defs>
</svg>
