<svg width="39" height="39" viewBox="0 0 39 39" fill="none" xmlns="http://www.w3.org/2000/svg">
<g filter="url(#filter0_dd_146_956)">
<path d="M2.53259 11.7416C3.75056 5.86959 7.49816 2.59907 13.3437 1.61107C17.665 0.880861 21.9878 0.871614 26.3018 1.63157C32.3207 2.69178 35.939 6.15303 37.0917 12.1138C37.9822 16.7205 37.9962 21.3764 37.0777 25.9787C35.8455 31.8101 32.0012 35.4096 26.1772 36.394C21.8559 37.1241 17.5331 37.1334 13.2191 36.3735C7.20024 35.3132 3.56586 31.6791 2.41326 25.7184C1.47729 21.0813 1.56735 16.3961 2.53259 11.7415V11.7416Z" fill="white"/>
</g>
<path d="M2.53259 11.7416C3.75056 5.86959 7.49816 2.59907 13.3437 1.61107C17.665 0.880861 21.9878 0.871614 26.3018 1.63157C32.3207 2.69178 35.939 6.15303 37.0917 12.1138C37.9822 16.7205 37.9962 21.3764 37.0777 25.9787C35.8455 31.8101 32.0012 35.4096 26.1772 36.394C21.8559 37.1241 17.5331 37.1334 13.2191 36.3735C7.20024 35.3132 3.56586 31.6791 2.41326 25.7184C1.47729 21.0813 1.56735 16.3961 2.53259 11.7415V11.7416Z" fill="white"/>
<path d="M2.53259 11.7416C3.75056 5.86959 7.49816 2.59907 13.3437 1.61107C17.665 0.880861 21.9878 0.871614 26.3018 1.63157C32.3207 2.69178 35.939 6.15303 37.0917 12.1138C37.9822 16.7205 37.9962 21.3764 37.0777 25.9787C35.8455 31.8101 32.0012 35.4096 26.1772 36.394C21.8559 37.1241 17.5331 37.1334 13.2191 36.3735C7.20024 35.3132 3.56586 31.6791 2.41326 25.7184C1.47729 21.0813 1.56735 16.3961 2.53259 11.7415V11.7416Z" fill="white"/>
<g filter="url(#filter1_f_146_956)">
<path fill-rule="evenodd" clip-rule="evenodd" d="M11.0726 15.3552C11.6846 12.4047 13.5678 10.7614 16.5051 10.2649C18.6764 9.89797 20.8486 9.89338 23.0162 10.2752C26.0406 10.8079 27.8586 12.5472 28.4378 15.5423C28.8854 17.8571 28.8924 20.1966 28.4308 22.5091C27.8117 25.4392 25.88 27.248 22.9535 27.7426C20.7822 28.1095 18.6101 28.1141 16.4424 27.7323C13.418 27.1995 11.5919 25.3735 11.0126 22.3783C10.5424 20.0483 10.5877 17.694 11.0726 15.3552Z" fill="white"/>
</g>
<path fill-rule="evenodd" clip-rule="evenodd" d="M27.9808 20.9498L27.974 20.8549V19.219H26.4998V20.4677C26.3773 21.0538 26.0032 21.1688 24.9519 21.4101C20.7022 22.3852 20.4448 22.8689 21.3938 27.1393C21.6752 28.4057 20.9113 29.3596 19.8716 29.3707C18.8319 29.3596 18.068 28.4057 18.3494 27.1393C19.2984 22.8689 18.7567 22.224 14.4881 21.3356C13.6759 21.1665 13.2415 20.9098 13.0445 20.3326V10.4274H26.4998V15.3324H15.4836V16.8067H26.4998C27.314 16.8067 27.974 16.1467 27.974 15.3324V10.4274C27.974 9.61325 27.314 8.95325 26.4998 8.95325H13.0445C12.2304 8.95325 11.5704 9.61325 11.5704 10.4274V20.9857C11.5451 21.3502 11.6588 21.6287 11.8468 21.8431C12.1111 22.2116 12.5403 22.4533 13.027 22.459C13.9152 22.7102 14.6834 22.8083 15.7032 23.1509C16.9579 23.5722 17.4248 23.8023 17.1944 25.422C17.1213 25.9368 16.997 26.4441 16.8762 26.9498C16.5011 28.5202 16.7962 29.4252 17.9622 30.2349C18.5226 30.6241 19.1922 30.8317 19.8716 30.8619C20.5511 30.8317 21.2206 30.6241 21.781 30.2349C22.9471 29.4252 23.2421 28.5202 22.867 26.9498C22.7462 26.4441 22.622 25.9368 22.5488 25.422C22.3185 23.8023 22.7854 23.5722 24.04 23.1509C25.0622 22.8075 25.894 22.6956 26.7373 22.4539C27.0846 22.4238 27.3933 22.2626 27.616 22.0202C27.8677 21.7789 28.0143 21.4347 27.9808 20.9498Z" fill="#63019C"/>
<defs>
<filter id="filter0_dd_146_956" x="0.949314" y="0.548001" width="37.6224" height="37.497" filterUnits="userSpaceOnUse" color-interpolation-filters="sRGB">
<feFlood flood-opacity="0" result="BackgroundImageFix"/>
<feColorMatrix in="SourceAlpha" type="matrix" values="0 0 0 0 0 0 0 0 0 0 0 0 0 0 0 0 0 0 127 0" result="hardAlpha"/>
<feOffset dy="0.367499"/>
<feGaussianBlur stdDeviation="0.294"/>
<feColorMatrix type="matrix" values="0 0 0 0 0 0 0 0 0 0 0 0 0 0 0 0 0 0 0.078125 0"/>
<feBlend mode="normal" in2="BackgroundImageFix" result="effect1_dropShadow_146_956"/>
<feColorMatrix in="SourceAlpha" type="matrix" values="0 0 0 0 0 0 0 0 0 0 0 0 0 0 0 0 0 0 127 0" result="hardAlpha"/>
<feOffset dy="0.294"/>
<feGaussianBlur stdDeviation="0.404249"/>
<feColorMatrix type="matrix" values="0 0 0 0 0 0 0 0 0 0 0 0 0 0 0 0 0 0 0.210824 0"/>
<feBlend mode="normal" in2="effect1_dropShadow_146_956" result="effect2_dropShadow_146_956"/>
<feBlend mode="normal" in="SourceGraphic" in2="effect2_dropShadow_146_956" result="shape"/>
</filter>
<filter id="filter1_f_146_956" x="7.11125" y="6.41716" width="25.236" height="25.1731" filterUnits="userSpaceOnUse" color-interpolation-filters="sRGB">
<feFlood flood-opacity="0" result="BackgroundImageFix"/>
<feBlend mode="normal" in="SourceGraphic" in2="BackgroundImageFix" result="shape"/>
<feGaussianBlur stdDeviation="1.78605" result="effect1_foregroundBlur_146_956"/>
</filter>
</defs>
</svg>
