<svg width="16" height="16" viewBox="0 0 16 16" fill="none" xmlns="http://www.w3.org/2000/svg">
<path d="M13.6616 5.84616H10.2154C9.41542 5.84616 8.92311 5.35385 8.92311 4.55385V1.10769C8.92311 0.830772 8.70773 0.615387 8.43081 0.615387H3.32311C2.52311 0.615387 1.84619 1.29231 1.84619 2.09231V13.9077C1.84619 14.7077 2.52311 15.3846 3.32311 15.3846H12.677C13.477 15.3846 14.1539 14.7077 14.1539 13.9077V6.33846C14.1539 6.06154 13.9385 5.84616 13.6616 5.84616Z" fill="#ECECEC"/>
<path d="M14.0615 3.96923L10.8 0.707695C10.7384 0.646156 10.6153 0.615387 10.523 0.615387C10.3384 0.615387 10.1538 0.769233 10.1538 0.953848V3.56923C10.1538 4.12308 10.6461 4.61539 11.2 4.61539H13.8153C14 4.61539 14.1538 4.43077 14.1538 4.24616C14.1538 4.15385 14.123 4.03077 14.0615 3.96923Z" fill="#ECECEC"/>
</svg>
