<svg width="33" height="32" viewBox="0 0 33 32" fill="none" xmlns="http://www.w3.org/2000/svg">
<path d="M19.1707 25.9056C19.1707 26.6933 18.8578 27.4487 18.3008 28.0057C17.7438 28.5627 16.9884 28.8756 16.2007 28.8756C15.413 28.8756 14.6576 28.5627 14.1006 28.0057C13.5436 27.4487 13.2307 26.6933 13.2307 25.9056C13.2307 25.1179 13.5436 24.3625 14.1006 23.8055C14.6576 23.2485 15.413 22.9356 16.2007 22.9356C16.9884 22.9356 17.7438 23.2485 18.3008 23.8055C18.8578 24.3625 19.1707 25.1179 19.1707 25.9056ZM19.1707 16.0056C19.1707 16.7933 18.8578 17.5487 18.3008 18.1057C17.7438 18.6627 16.9884 18.9756 16.2007 18.9756C15.413 18.9756 14.6576 18.6627 14.1006 18.1057C13.5436 17.5487 13.2307 16.7933 13.2307 16.0056C13.2307 15.2179 13.5436 14.4625 14.1006 13.9055C14.6576 13.3485 15.413 13.0356 16.2007 13.0356C16.9884 13.0356 17.7438 13.3485 18.3008 13.9055C18.8578 14.4625 19.1707 15.2179 19.1707 16.0056ZM19.1707 6.10562C19.1707 6.89331 18.8578 7.64874 18.3008 8.20573C17.7438 8.76271 16.9884 9.07562 16.2007 9.07562C15.413 9.07562 14.6576 8.76271 14.1006 8.20573C13.5436 7.64874 13.2307 6.89331 13.2307 6.10562C13.2307 5.31793 13.5436 4.5625 14.1006 4.00551C14.6576 3.44853 15.413 3.13562 16.2007 3.13562C16.9884 3.13562 17.7438 3.44853 18.3008 4.00551C18.8578 4.5625 19.1707 5.31793 19.1707 6.10562Z" fill="white"/>
</svg>
