<svg width="32" height="32" viewBox="0 0 32 32" fill="none" xmlns="http://www.w3.org/2000/svg">
<path d="M26.4629 21.9103C24.8739 19.9656 23.7521 18.9756 23.7521 13.6142C23.7521 8.70437 21.2449 6.95516 19.1814 6.10562C18.9073 5.99301 18.6493 5.73437 18.5658 5.45284C18.2038 4.22091 17.189 3.13562 15.8402 3.13562C14.4913 3.13562 13.4759 4.22153 13.1177 5.45408C13.0341 5.7387 12.7761 5.99301 12.502 6.10562C10.436 6.9564 7.9313 8.69942 7.9313 13.6142C7.9282 18.9756 6.80641 19.9656 5.21746 21.9103C4.55911 22.716 5.13578 23.9256 6.28728 23.9256H25.3992C26.5445 23.9256 27.1175 22.7122 26.4629 21.9103Z" stroke="white" stroke-width="2.64" stroke-linecap="round" stroke-linejoin="round"/>
<path d="M19.7996 23.924V24.914C19.7996 25.9642 19.3824 26.9714 18.6398 27.7141C17.8971 28.4567 16.8899 28.8739 15.8396 28.8739C14.7894 28.8739 13.7821 28.4567 13.0395 27.7141C12.2969 26.9714 11.8796 25.9642 11.8796 24.914V23.924" stroke="white" stroke-width="2.64" stroke-linecap="round" stroke-linejoin="round"/>
</svg>
