<svg width="128" height="126" viewBox="0 0 128 126" fill="none" xmlns="http://www.w3.org/2000/svg">
<path d="M111.146 80.5636L107.027 36.5359C106.777 33.8904 105.512 31.4401 103.493 29.6878C101.474 27.9355 98.853 27.0141 96.1686 27.1128C93.4841 27.2115 90.9397 28.3228 89.0575 30.2186C87.1753 32.1144 86.0982 34.6508 86.0471 37.3073L85.7217 43.4143C78.418 31.643 63.5427 7.73629 63.3651 7.45067C62.6361 6.25747 61.6722 5.22127 60.5306 4.40354C59.389 3.58581 58.0929 3.00322 56.7193 2.69033C55.3797 2.37778 53.9903 2.33445 52.6334 2.5629C51.2766 2.79136 49.9799 3.28694 48.8203 4.02028C46.7946 5.29881 45.2693 7.22141 44.4956 9.4716L41.8609 5.20595C41.132 4.01285 40.1683 2.97671 39.0268 2.15899C37.8854 1.34126 36.5896 0.758615 35.2162 0.445609C33.8761 0.132652 32.4861 0.089111 31.1287 0.317569C29.7713 0.546027 28.4741 1.04183 27.3141 1.77556C24.9475 3.30101 23.2757 5.67928 22.6542 8.40478C22.0327 11.1303 22.5104 13.9881 23.9858 16.3707L25.4872 18.8009C23.0986 18.4992 20.6788 19.0366 18.6499 20.3193C16.2833 21.8447 14.6115 24.223 13.99 26.9485C13.3685 29.674 13.8462 32.5318 15.3216 34.9144L20.457 43.2278C18.0683 42.9231 15.6474 43.4607 13.6197 44.7462C11.2528 46.2714 9.5806 48.6495 8.95869 51.375C8.33678 54.1005 8.81419 56.9585 10.2894 59.3413L37.9402 104.133C45.5931 116.519 59.8353 125.809 74.8277 125.809C80.7283 125.809 86.5349 124.347 91.7174 121.556C91.7591 121.534 91.8008 121.51 91.8415 121.485L95.0527 119.465C103.016 114.454 107.741 108.786 110.369 101.089C112.293 95.4581 112.036 90.3257 111.573 85.1276C111.355 82.6552 111.146 80.5636 111.146 80.5636ZM106.609 99.8326C104.289 106.622 100.069 111.654 92.9221 116.151L89.7734 118.132C71.5996 127.762 50.8764 117.545 41.327 102.084L13.6783 57.2949C12.7405 55.7915 12.4324 53.9858 12.8193 52.2614C13.2062 50.5369 14.2577 49.0297 15.7503 48.0598C17.2362 47.169 19.0178 46.8951 20.707 47.2977C22.3962 47.7003 23.8562 48.7469 24.7687 50.2093L42.3561 78.683C42.6365 79.1207 43.078 79.4334 43.5873 79.555C44.0965 79.6766 44.6336 79.5976 45.0851 79.3347C45.3075 79.2003 45.5009 79.0238 45.6544 78.8153C45.8078 78.6069 45.9182 78.3706 45.9793 78.12C46.0404 77.8693 46.051 77.6092 46.0104 77.3545C45.9699 77.0998 45.879 76.8555 45.743 76.6356L18.7085 32.867C17.7704 31.3638 17.4619 29.5581 17.8487 27.8336C18.2354 26.1091 19.2868 24.6017 20.7795 23.6319C22.2666 22.7389 24.0507 22.4646 25.7418 22.8688C27.4328 23.2731 28.8933 24.3231 29.8039 25.7893L56.8434 69.5648C57.1247 70.0014 57.566 70.3133 58.0749 70.4351C58.5837 70.5567 59.1204 70.4788 59.5723 70.2175C59.7947 70.083 59.9882 69.9065 60.1416 69.6981C60.2951 69.4896 60.4055 69.2533 60.4666 69.0027C60.5277 68.752 60.5383 68.4919 60.4977 68.2372C60.4572 67.9825 60.3663 67.7383 60.2303 67.5183L27.3737 14.3242C26.4353 12.821 26.1266 11.0151 26.5134 9.29032C26.9001 7.56557 27.9517 6.05803 29.4447 5.08817C30.9331 4.19362 32.7194 3.91931 34.412 4.32537C36.1046 4.73144 37.5654 5.78474 38.474 7.25437L71.3297 60.4485C71.6104 60.8857 72.0519 61.1981 72.561 61.3197C73.0701 61.4413 73.607 61.3626 74.0586 61.1002C74.5078 60.8286 74.8295 60.3917 74.953 59.8855C75.0766 59.3794 74.9919 58.8454 74.7175 58.401L48.8778 16.567C47.9393 15.0639 47.6307 13.2579 48.0177 11.5332C48.4046 9.80857 49.4566 8.30126 50.9498 7.33191C51.6652 6.87968 52.4651 6.57434 53.3022 6.43405C54.1392 6.29376 54.9962 6.32139 55.8223 6.51529C56.6827 6.71214 57.4943 7.07807 58.209 7.59132C58.9236 8.10458 59.5266 8.75469 59.9822 9.50301C60.1985 9.85145 81.7324 44.4606 85.674 50.8502C85.8949 51.2079 86.2257 51.4863 86.6181 51.6446C87.0104 51.8029 87.4437 51.8328 87.8545 51.7301C88.2653 51.6273 88.632 51.3971 88.9011 51.0733C89.1701 50.7495 89.3273 50.3491 89.3497 49.9306L90.0126 37.4732C90.0237 35.8093 90.682 34.2134 91.8509 33.0168C93.0199 31.8201 94.6098 31.1145 96.2907 31.0463C97.9716 30.9781 99.6146 31.5526 100.879 32.6506C102.143 33.7486 102.931 35.2857 103.08 36.9432C103.08 36.9432 107.401 83.0154 107.62 85.4702C108.059 90.418 108.288 94.9153 106.609 99.8326ZM17.2676 108.266C12.7643 106.775 8.97654 102.03 6.9323 98.0856C4.54499 93.4975 4.07839 88.1647 5.63332 83.2392C5.79387 82.7433 5.74866 82.2046 5.50766 81.7417C5.26666 81.2788 4.8496 80.9295 4.34823 80.7707C3.84686 80.6119 3.30225 80.6566 2.83421 80.895C2.36616 81.1333 2.01302 81.5459 1.85248 82.0417C-0.0193086 87.9575 0.536746 94.3641 3.40054 99.8778C4.56456 102.125 8.91799 109.643 16.0083 111.99C16.2555 112.071 16.5166 112.104 16.7766 112.086C17.0367 112.068 17.2906 112 17.5238 111.885C17.7571 111.77 17.9652 111.61 18.1362 111.416C18.3072 111.221 18.4377 110.995 18.5204 110.751C18.6031 110.506 18.6363 110.248 18.6181 109.991C18.5999 109.733 18.5306 109.482 18.4143 109.252C18.298 109.021 18.1368 108.815 17.9401 108.646C17.7433 108.477 17.5148 108.348 17.2676 108.266ZM22.2293 98.4487C19.8973 97.6773 17.9027 95.1528 16.8111 93.0455C15.5491 90.6224 15.3014 87.8055 16.1214 85.2032C16.2029 84.9572 16.2345 84.6977 16.2142 84.4396C16.1939 84.1815 16.1222 83.93 16.0032 83.6994C15.8842 83.4688 15.7203 83.2638 15.5209 83.0962C15.3215 82.9285 15.0905 82.8015 14.8413 82.7225C14.5921 82.6435 14.3295 82.614 14.0687 82.6357C13.8079 82.6575 13.554 82.73 13.3217 82.8492C13.0894 82.9684 12.8832 83.1319 12.715 83.3302C12.5467 83.5285 12.4199 83.7578 12.3416 84.0048C11.2033 87.597 11.5398 91.4879 13.2784 94.8368C13.9809 96.1932 16.6126 100.731 20.97 102.173C21.4696 102.332 22.0122 102.291 22.4817 102.059C22.9513 101.827 23.3106 101.423 23.4827 100.933C23.6493 100.439 23.6109 99.9001 23.3759 99.4342C23.1408 98.9684 22.7285 98.614 22.2293 98.4487ZM123.699 20.4459C122.29 18.369 117.132 11.4817 109.943 10.035C109.427 9.93126 108.891 10.0345 108.452 10.3219C108.013 10.6093 107.707 11.0574 107.602 11.5676C107.498 12.0778 107.602 12.6084 107.892 13.0425C108.183 13.4766 108.636 13.7788 109.152 13.8825C113.687 14.7953 117.937 19.0021 120.403 22.6347C123.29 26.8884 124.399 32.0827 123.497 37.1277C123.45 37.3813 123.454 37.6416 123.509 37.8938C123.563 38.1459 123.667 38.385 123.815 38.5972C123.963 38.8095 124.152 38.9909 124.371 39.131C124.59 39.271 124.835 39.3671 125.091 39.4136C125.21 39.4355 125.33 39.4463 125.451 39.446C125.915 39.4455 126.364 39.2844 126.72 38.9905C127.077 38.6966 127.317 38.2886 127.401 37.8373C128.488 31.7848 127.16 25.5513 123.699 20.4459ZM106.343 20.3262C105.827 20.2226 105.29 20.3259 104.851 20.6135C104.412 20.9011 104.107 21.3494 104.002 21.8598C103.897 22.3701 104.002 22.9007 104.293 23.3348C104.584 23.769 105.037 24.0711 105.553 24.1747C107.892 24.6458 110.13 26.8836 111.445 28.8202C112.972 31.068 113.559 33.8133 113.083 36.4799C113.035 36.7334 113.039 36.9937 113.094 37.2458C113.148 37.4979 113.252 37.7369 113.4 37.9491C113.548 38.1614 113.737 38.3428 113.956 38.4829C114.175 38.6231 114.419 38.7192 114.675 38.7659C114.932 38.8125 115.195 38.8088 115.45 38.7549C115.705 38.7009 115.946 38.5979 116.161 38.4516C116.375 38.3053 116.559 38.1187 116.7 37.9023C116.842 37.6859 116.939 37.4441 116.987 37.1905C117.647 33.5159 116.842 29.731 114.74 26.6314C113.889 25.378 110.769 21.2164 106.343 20.3262Z" fill="url(#paint0_linear_143_3710)"/>
<defs>
<linearGradient id="paint0_linear_143_3710" x1="0.763184" y1="62.9914" x2="127.771" y2="62.9914" gradientUnits="userSpaceOnUse">
<stop stop-color="#553C9A"/>
<stop offset="1" stop-color="#047857"/>
</linearGradient>
</defs>
</svg>
