<svg width="584" height="185" viewBox="0 0 584 185" fill="none" xmlns="http://www.w3.org/2000/svg">
<g filter="url(#filter0_d_146_1014)">
<g clip-path="url(#clip0_146_1014)">
<path d="M216.951 26.1281L219.726 26.0531C219.792 26.6864 219.842 27.3531 219.876 28.0531C219.909 28.7531 219.934 29.4448 219.951 30.1281C219.967 30.8114 219.976 31.4698 219.976 32.1031V37.9781C219.859 38.0114 219.667 38.0448 219.401 38.0781C219.134 38.1281 218.859 38.1531 218.576 38.1531C217.992 38.1531 217.576 38.0531 217.326 37.8531C217.076 37.6364 216.951 37.2698 216.951 36.7531V26.1281ZM229.776 34.6531L226.976 34.7281C226.842 33.4448 226.767 32.1864 226.751 30.9531C226.734 29.7031 226.726 28.5031 226.726 27.3531V22.8281C226.876 22.7948 227.076 22.7531 227.326 22.7031C227.592 22.6531 227.867 22.6281 228.151 22.6281C228.734 22.6281 229.151 22.7364 229.401 22.9531C229.651 23.1531 229.776 23.5114 229.776 24.0281V34.6531ZM229.776 33.6281V32.1281V37.6031C229.576 37.7698 229.309 37.9031 228.976 38.0031C228.659 38.1198 228.284 38.1781 227.851 38.1781C227.351 38.1781 226.892 38.0948 226.476 37.9281C226.076 37.7614 225.734 37.4031 225.451 36.8531L221.751 30.2031C221.534 29.8031 221.309 29.3864 221.076 28.9531C220.859 28.5198 220.642 28.0948 220.426 27.6781C220.226 27.2448 220.051 26.8531 219.901 26.5031L216.951 27.1781V23.3531C217.134 23.1198 217.401 22.9448 217.751 22.8281C218.101 22.7114 218.476 22.6531 218.876 22.6531C219.376 22.6531 219.834 22.7364 220.251 22.9031C220.667 23.0698 221.009 23.4281 221.276 23.9781L225.001 30.6031C225.234 31.0031 225.459 31.4281 225.676 31.8781C225.892 32.3114 226.101 32.7364 226.301 33.1531C226.501 33.5698 226.676 33.9531 226.826 34.3031L229.776 33.6281ZM244.899 32.0781C244.899 33.3614 244.649 34.4781 244.149 35.4281C243.649 36.3614 242.941 37.0864 242.024 37.6031C241.124 38.1031 240.058 38.3531 238.824 38.3531C237.608 38.3531 236.541 38.1031 235.624 37.6031C234.708 37.0864 233.999 36.3614 233.499 35.4281C232.999 34.4948 232.749 33.3781 232.749 32.0781C232.749 30.7948 232.999 29.6864 233.499 28.7531C234.016 27.8198 234.733 27.1031 235.649 26.6031C236.566 26.0864 237.633 25.8281 238.849 25.8281C240.049 25.8281 241.099 26.0864 241.999 26.6031C242.916 27.1198 243.624 27.8448 244.124 28.7781C244.641 29.7114 244.899 30.8114 244.899 32.0781ZM238.824 28.2531C237.908 28.2531 237.183 28.5948 236.649 29.2781C236.116 29.9448 235.849 30.8781 235.849 32.0781C235.849 33.3114 236.108 34.2698 236.624 34.9531C237.158 35.6198 237.891 35.9531 238.824 35.9531C239.758 35.9531 240.483 35.6114 240.999 34.9281C241.533 34.2448 241.799 33.2948 241.799 32.0781C241.799 30.8948 241.533 29.9614 240.999 29.2781C240.483 28.5948 239.758 28.2531 238.824 28.2531ZM247.583 31.4031H250.583V34.3781C250.583 34.9281 250.75 35.3281 251.083 35.5781C251.417 35.8114 251.883 35.9281 252.483 35.9281C252.75 35.9281 253.033 35.8948 253.333 35.8281C253.65 35.7448 253.917 35.6531 254.133 35.5531C254.267 35.6864 254.375 35.8448 254.458 36.0281C254.558 36.2114 254.608 36.4281 254.608 36.6781C254.608 37.1614 254.383 37.5614 253.933 37.8781C253.483 38.1948 252.775 38.3531 251.808 38.3531C250.508 38.3531 249.475 38.0614 248.708 37.4781C247.958 36.8948 247.583 35.9281 247.583 34.5781V31.4031ZM249.408 28.8281V26.4281H254.308C254.392 26.5448 254.467 26.7114 254.533 26.9281C254.6 27.1448 254.633 27.3698 254.633 27.6031C254.633 28.0198 254.533 28.3281 254.333 28.5281C254.15 28.7281 253.892 28.8281 253.558 28.8281H249.408ZM250.583 32.0781H247.583V23.0781C247.717 23.0281 247.908 22.9781 248.158 22.9281C248.408 22.8781 248.675 22.8531 248.958 22.8531C249.525 22.8531 249.933 22.9614 250.183 23.1781C250.45 23.3781 250.583 23.7364 250.583 24.2531V32.0781ZM257.003 22.6531C257.003 22.1698 257.17 21.7698 257.503 21.4531C257.836 21.1198 258.261 20.9531 258.778 20.9531C259.295 20.9531 259.711 21.1198 260.028 21.4531C260.361 21.7698 260.528 22.1698 260.528 22.6531C260.528 23.1198 260.361 23.5198 260.028 23.8531C259.711 24.1864 259.295 24.3531 258.778 24.3531C258.261 24.3531 257.836 24.1864 257.503 23.8531C257.17 23.5198 257.003 23.1198 257.003 22.6531ZM257.253 31.4031H260.278V37.9531C260.161 38.0031 259.978 38.0448 259.728 38.0781C259.478 38.1281 259.203 38.1531 258.903 38.1531C258.353 38.1531 257.936 38.0531 257.653 37.8531C257.386 37.6531 257.253 37.2864 257.253 36.7531V31.4031ZM260.278 32.9531H257.253V26.2781C257.386 26.2448 257.578 26.2031 257.828 26.1531C258.078 26.1031 258.345 26.0781 258.628 26.0781C259.211 26.0781 259.628 26.1864 259.878 26.4031C260.145 26.6031 260.278 26.9698 260.278 27.5031V32.9531ZM266.122 29.3281V26.9531H271.172C271.239 27.0698 271.306 27.2364 271.372 27.4531C271.439 27.6531 271.472 27.8781 271.472 28.1281C271.472 28.5448 271.372 28.8531 271.172 29.0531C270.989 29.2364 270.731 29.3281 270.397 29.3281H266.122ZM266.597 25.7531V28.9531H263.672V25.6281C263.672 24.5781 263.881 23.7281 264.297 23.0781C264.731 22.4114 265.322 21.9281 266.072 21.6281C266.822 21.3114 267.689 21.1531 268.672 21.1531C269.756 21.1531 270.572 21.2948 271.122 21.5781C271.689 21.8614 271.972 22.2864 271.972 22.8531C271.972 23.1031 271.914 23.3281 271.797 23.5281C271.697 23.7281 271.572 23.8948 271.422 24.0281C271.122 23.8948 270.772 23.7864 270.372 23.7031C269.972 23.6198 269.556 23.5781 269.122 23.5781C268.239 23.5781 267.597 23.7448 267.197 24.0781C266.797 24.4114 266.597 24.9698 266.597 25.7531ZM263.672 28.0781H266.722V37.9531C266.589 38.0031 266.397 38.0448 266.147 38.0781C265.897 38.1281 265.631 38.1531 265.347 38.1531C264.781 38.1531 264.356 38.0531 264.072 37.8531C263.806 37.6531 263.672 37.2864 263.672 36.7531V28.0781ZM273.797 22.6531C273.797 22.1698 273.964 21.7698 274.297 21.4531C274.631 21.1198 275.056 20.9531 275.572 20.9531C276.089 20.9531 276.506 21.1198 276.822 21.4531C277.156 21.7698 277.322 22.1698 277.322 22.6531C277.322 23.1198 277.156 23.5198 276.822 23.8531C276.506 24.1864 276.089 24.3531 275.572 24.3531C275.056 24.3531 274.631 24.1864 274.297 23.8531C273.964 23.5198 273.797 23.1198 273.797 22.6531ZM274.047 31.4031H277.072V37.9531C276.956 38.0031 276.772 38.0448 276.522 38.0781C276.272 38.1281 275.997 38.1531 275.697 38.1531C275.147 38.1531 274.731 38.0531 274.447 37.8531C274.181 37.6531 274.047 37.2864 274.047 36.7531V31.4031ZM277.072 32.9531H274.047V26.2781C274.181 26.2448 274.372 26.2031 274.622 26.1531C274.872 26.1031 275.139 26.0781 275.422 26.0781C276.006 26.0781 276.422 26.1864 276.672 26.4031C276.939 26.6031 277.072 26.9698 277.072 27.5031V32.9531ZM286.469 28.2781C285.469 28.2781 284.627 28.6114 283.944 29.2781C283.261 29.9281 282.919 30.8781 282.919 32.1281C282.919 33.3614 283.244 34.3031 283.894 34.9531C284.561 35.6031 285.419 35.9281 286.469 35.9281C287.069 35.9281 287.586 35.8448 288.019 35.6781C288.452 35.5114 288.827 35.3364 289.144 35.1531C289.394 35.3031 289.586 35.4864 289.719 35.7031C289.852 35.9031 289.919 36.1448 289.919 36.4281C289.919 36.9948 289.577 37.4614 288.894 37.8281C288.227 38.1781 287.336 38.3531 286.219 38.3531C284.952 38.3531 283.836 38.1281 282.869 37.6781C281.919 37.2114 281.177 36.5114 280.644 35.5781C280.111 34.6448 279.844 33.4948 279.844 32.1281C279.844 30.7281 280.127 29.5614 280.694 28.6281C281.261 27.6948 282.019 26.9948 282.969 26.5281C283.936 26.0614 284.994 25.8281 286.144 25.8281C287.244 25.8281 288.127 26.0281 288.794 26.4281C289.461 26.8114 289.794 27.2781 289.794 27.8281C289.794 28.0781 289.727 28.3114 289.594 28.5281C289.461 28.7281 289.294 28.8948 289.094 29.0281C288.777 28.8448 288.402 28.6781 287.969 28.5281C287.552 28.3614 287.052 28.2781 286.469 28.2781ZM297.178 36.0531C297.695 36.0531 298.153 36.0031 298.553 35.9031C298.953 35.8031 299.245 35.6948 299.428 35.5781V32.7031L296.928 32.9281C296.245 32.9948 295.72 33.1531 295.353 33.4031C295.003 33.6364 294.828 33.9948 294.828 34.4781C294.828 34.9614 295.02 35.3448 295.403 35.6281C295.786 35.9114 296.378 36.0531 297.178 36.0531ZM297.078 25.8281C298.695 25.8281 299.978 26.1781 300.928 26.8781C301.895 27.5614 302.378 28.6448 302.378 30.1281V35.9031C302.378 36.3031 302.286 36.6198 302.103 36.8531C301.92 37.0698 301.678 37.2698 301.378 37.4531C300.911 37.7198 300.32 37.9364 299.603 38.1031C298.886 38.2864 298.078 38.3781 297.178 38.3781C295.528 38.3781 294.228 38.0614 293.278 37.4281C292.328 36.7781 291.853 35.8198 291.853 34.5531C291.853 33.4364 292.203 32.5864 292.903 32.0031C293.62 31.4031 294.653 31.0364 296.003 30.9031L299.428 30.5531V30.1031C299.428 29.4198 299.195 28.9281 298.728 28.6281C298.261 28.3281 297.611 28.1781 296.778 28.1781C296.128 28.1781 295.495 28.2614 294.878 28.4281C294.261 28.5948 293.711 28.7948 293.228 29.0281C293.061 28.8948 292.911 28.7198 292.778 28.5031C292.661 28.2698 292.603 28.0281 292.603 27.7781C292.603 27.1781 292.928 26.7364 293.578 26.4531C294.045 26.2531 294.586 26.1031 295.203 26.0031C295.82 25.8864 296.445 25.8281 297.078 25.8281ZM305.591 31.4031H308.591V34.3781C308.591 34.9281 308.758 35.3281 309.091 35.5781C309.424 35.8114 309.891 35.9281 310.491 35.9281C310.758 35.9281 311.041 35.8948 311.341 35.8281C311.658 35.7448 311.924 35.6531 312.141 35.5531C312.274 35.6864 312.383 35.8448 312.466 36.0281C312.566 36.2114 312.616 36.4281 312.616 36.6781C312.616 37.1614 312.391 37.5614 311.941 37.8781C311.491 38.1948 310.783 38.3531 309.816 38.3531C308.516 38.3531 307.483 38.0614 306.716 37.4781C305.966 36.8948 305.591 35.9281 305.591 34.5781V31.4031ZM307.416 28.8281V26.4281H312.316C312.399 26.5448 312.474 26.7114 312.541 26.9281C312.608 27.1448 312.641 27.3698 312.641 27.6031C312.641 28.0198 312.541 28.3281 312.341 28.5281C312.158 28.7281 311.899 28.8281 311.566 28.8281H307.416ZM308.591 32.0781H305.591V23.0781C305.724 23.0281 305.916 22.9781 306.166 22.9281C306.416 22.8781 306.683 22.8531 306.966 22.8531C307.533 22.8531 307.941 22.9614 308.191 23.1781C308.458 23.3781 308.591 23.7364 308.591 24.2531V32.0781ZM315.011 22.6531C315.011 22.1698 315.178 21.7698 315.511 21.4531C315.844 21.1198 316.269 20.9531 316.786 20.9531C317.303 20.9531 317.719 21.1198 318.036 21.4531C318.369 21.7698 318.536 22.1698 318.536 22.6531C318.536 23.1198 318.369 23.5198 318.036 23.8531C317.719 24.1864 317.303 24.3531 316.786 24.3531C316.269 24.3531 315.844 24.1864 315.511 23.8531C315.178 23.5198 315.011 23.1198 315.011 22.6531ZM315.261 31.4031H318.286V37.9531C318.169 38.0031 317.986 38.0448 317.736 38.0781C317.486 38.1281 317.211 38.1531 316.911 38.1531C316.361 38.1531 315.944 38.0531 315.661 37.8531C315.394 37.6531 315.261 37.2864 315.261 36.7531V31.4031ZM318.286 32.9531H315.261V26.2781C315.394 26.2448 315.586 26.2031 315.836 26.1531C316.086 26.1031 316.353 26.0781 316.636 26.0781C317.219 26.0781 317.636 26.1864 317.886 26.4031C318.153 26.6031 318.286 26.9698 318.286 27.5031V32.9531ZM333.205 32.0781C333.205 33.3614 332.955 34.4781 332.455 35.4281C331.955 36.3614 331.247 37.0864 330.33 37.6031C329.43 38.1031 328.363 38.3531 327.13 38.3531C325.913 38.3531 324.847 38.1031 323.93 37.6031C323.013 37.0864 322.305 36.3614 321.805 35.4281C321.305 34.4948 321.055 33.3781 321.055 32.0781C321.055 30.7948 321.305 29.6864 321.805 28.7531C322.322 27.8198 323.038 27.1031 323.955 26.6031C324.872 26.0864 325.938 25.8281 327.155 25.8281C328.355 25.8281 329.405 26.0864 330.305 26.6031C331.222 27.1198 331.93 27.8448 332.43 28.7781C332.947 29.7114 333.205 30.8114 333.205 32.0781ZM327.13 28.2531C326.213 28.2531 325.488 28.5948 324.955 29.2781C324.422 29.9448 324.155 30.8781 324.155 32.0781C324.155 33.3114 324.413 34.2698 324.93 34.9531C325.463 35.6198 326.197 35.9531 327.13 35.9531C328.063 35.9531 328.788 35.6114 329.305 34.9281C329.838 34.2448 330.105 33.2948 330.105 32.0781C330.105 30.8948 329.838 29.9614 329.305 29.2781C328.788 28.5948 328.063 28.2531 327.13 28.2531ZM346.739 30.2781V32.7281H343.714V30.4031C343.714 29.6531 343.497 29.1114 343.064 28.7781C342.647 28.4281 342.081 28.2531 341.364 28.2531C340.864 28.2531 340.406 28.3198 339.989 28.4531C339.572 28.5698 339.206 28.7198 338.889 28.9031V32.7281H335.839V28.7031C335.839 28.3031 335.922 27.9781 336.089 27.7281C336.256 27.4781 336.514 27.2364 336.864 27.0031C337.347 26.6864 337.981 26.4114 338.764 26.1781C339.564 25.9448 340.439 25.8281 341.389 25.8281C343.072 25.8281 344.381 26.2031 345.314 26.9531C346.264 27.7031 346.739 28.8114 346.739 30.2781ZM335.839 31.4781H338.889V37.9531C338.756 38.0031 338.564 38.0448 338.314 38.0781C338.064 38.1281 337.797 38.1531 337.514 38.1531C336.947 38.1531 336.522 38.0531 336.239 37.8531C335.972 37.6531 335.839 37.2864 335.839 36.7531V31.4781ZM343.714 31.4781H346.739V37.9531C346.622 38.0031 346.431 38.0448 346.164 38.0781C345.914 38.1281 345.647 38.1531 345.364 38.1531C344.797 38.1531 344.381 38.0531 344.114 37.8531C343.847 37.6531 343.714 37.2864 343.714 36.7531V31.4781Z" fill="#047857"/>
<path d="M224.245 84.2789C224.245 83.3032 224.059 82.5128 223.689 81.9077C223.318 81.2902 222.824 80.8394 222.207 80.5554C221.589 80.259 220.892 80.1108 220.114 80.1108C219.78 80.1108 219.478 80.1231 219.206 80.1478C218.947 80.1725 218.7 80.2034 218.465 80.2404V88.4655C218.724 88.5273 219.008 88.5705 219.317 88.5952C219.626 88.6199 219.935 88.6323 220.243 88.6323C221.528 88.6323 222.516 88.2679 223.207 87.5393C223.899 86.7983 224.245 85.7115 224.245 84.2789ZM226.227 84.2789C226.227 85.6127 225.98 86.7242 225.486 87.6134C224.992 88.4902 224.294 89.1448 223.393 89.577C222.503 90.0093 221.454 90.2254 220.243 90.2254C219.848 90.2254 219.385 90.2069 218.854 90.1698C218.323 90.1328 217.829 90.0402 217.372 89.892C216.816 89.7067 216.538 89.3794 216.538 88.9101V79.6106C216.538 79.4006 216.594 79.2401 216.705 79.1289C216.829 79.0054 216.995 78.9128 217.205 78.8511C217.625 78.7152 218.088 78.6288 218.595 78.5917C219.101 78.5423 219.595 78.5176 220.077 78.5176C221.299 78.5176 222.368 78.7337 223.281 79.166C224.208 79.5859 224.93 80.2219 225.449 81.0741C225.968 81.9139 226.227 82.9821 226.227 84.2789ZM239.069 84.3715C239.069 85.6559 238.829 86.7365 238.347 87.6134C237.865 88.4902 237.211 89.151 236.383 89.5956C235.556 90.0402 234.617 90.2625 233.567 90.2625C232.53 90.2625 231.591 90.0402 230.752 89.5956C229.924 89.151 229.27 88.4902 228.788 87.6134C228.306 86.7365 228.065 85.6559 228.065 84.3715C228.065 83.0871 228.312 82.0065 228.806 81.1296C229.3 80.2528 229.961 79.5921 230.789 79.1475C231.616 78.7029 232.542 78.4806 233.567 78.4806C234.605 78.4806 235.537 78.7029 236.365 79.1475C237.192 79.5921 237.847 80.2528 238.328 81.1296C238.822 82.0065 239.069 83.0871 239.069 84.3715ZM237.069 84.3715C237.069 82.9883 236.748 81.9324 236.105 81.2037C235.475 80.4627 234.63 80.0922 233.567 80.0922C232.518 80.0922 231.672 80.4627 231.029 81.2037C230.387 81.9324 230.066 82.9883 230.066 84.3715C230.066 85.7547 230.381 86.8168 231.011 87.5578C231.653 88.2865 232.505 88.6508 233.567 88.6508C234.642 88.6508 235.494 88.2865 236.124 87.5578C236.754 86.8168 237.069 85.7547 237.069 84.3715ZM249.824 86.0943H248.101C247.768 85.6003 247.41 85.0631 247.027 84.4827C246.656 83.9022 246.286 83.3094 245.915 82.7043C245.545 82.0991 245.199 81.5063 244.878 80.9259C244.557 80.3454 244.273 79.8082 244.026 79.3142C244.1 79.1536 244.223 79.0054 244.396 78.8696C244.569 78.7214 244.791 78.6473 245.063 78.6473C245.36 78.6473 245.594 78.7214 245.767 78.8696C245.94 79.0054 246.113 79.2339 246.286 79.555C246.397 79.765 246.545 80.0305 246.73 80.3516C246.916 80.6727 247.107 81.0185 247.305 81.389C247.515 81.7595 247.725 82.13 247.935 82.5005C248.145 82.871 248.33 83.2106 248.49 83.5194C248.663 83.8281 248.805 84.0751 248.916 84.2604H249.009C249.392 83.5935 249.738 82.9636 250.046 82.3708C250.368 81.778 250.67 81.1914 250.954 80.6109C251.251 80.0305 251.553 79.4377 251.862 78.8325C251.973 78.7708 252.103 78.7276 252.251 78.7029C252.399 78.6658 252.535 78.6473 252.658 78.6473C252.942 78.6473 253.165 78.7214 253.325 78.8696C253.498 79.0054 253.585 79.203 253.585 79.4624C253.585 79.5982 253.498 79.8514 253.325 80.2219C253.165 80.5801 252.924 81.0432 252.603 81.6113C252.282 82.167 251.887 82.8278 251.417 83.5935C250.96 84.3468 250.429 85.1804 249.824 86.0943ZM248.009 85.2792H249.917V89.9661C249.843 89.9908 249.719 90.0216 249.546 90.0587C249.386 90.0957 249.219 90.1143 249.046 90.1143C248.676 90.1143 248.41 90.0463 248.249 89.9105C248.089 89.7623 248.009 89.5338 248.009 89.2251V85.2792ZM265.663 84.3715C265.663 85.6559 265.422 86.7365 264.94 87.6134C264.459 88.4902 263.804 89.151 262.977 89.5956C262.149 90.0402 261.211 90.2625 260.161 90.2625C259.124 90.2625 258.185 90.0402 257.345 89.5956C256.518 89.151 255.863 88.4902 255.381 87.6134C254.9 86.7365 254.659 85.6559 254.659 84.3715C254.659 83.0871 254.906 82.0065 255.4 81.1296C255.894 80.2528 256.555 79.5921 257.382 79.1475C258.21 78.7029 259.136 78.4806 260.161 78.4806C261.198 78.4806 262.131 78.7029 262.958 79.1475C263.786 79.5921 264.44 80.2528 264.922 81.1296C265.416 82.0065 265.663 83.0871 265.663 84.3715ZM263.662 84.3715C263.662 82.9883 263.341 81.9324 262.699 81.2037C262.069 80.4627 261.223 80.0922 260.161 80.0922C259.111 80.0922 258.265 80.4627 257.623 81.2037C256.981 81.9324 256.66 82.9883 256.66 84.3715C256.66 85.7547 256.975 86.8168 257.604 87.5578C258.247 88.2865 259.099 88.6508 260.161 88.6508C261.235 88.6508 262.088 88.2865 262.717 87.5578C263.347 86.8168 263.662 85.7547 263.662 84.3715ZM272.635 90.2625C271.684 90.2625 270.869 90.0896 270.19 89.7438C269.51 89.398 268.992 88.9101 268.634 88.2803C268.288 87.6381 268.115 86.8971 268.115 86.0573V84.6309H270.041V85.9461C270.041 86.8353 270.288 87.5084 270.782 87.9654C271.276 88.4223 271.894 88.6508 272.635 88.6508C273.376 88.6508 273.993 88.4223 274.487 87.9654C274.981 87.5084 275.228 86.8353 275.228 85.9461V84.6309H277.174V86.0573C277.174 86.8971 276.994 87.6381 276.636 88.2803C276.291 88.9101 275.778 89.398 275.099 89.7438C274.419 90.0896 273.598 90.2625 272.635 90.2625ZM270.041 85.3348H268.115V78.7584C268.189 78.7337 268.312 78.709 268.485 78.6843C268.658 78.6473 268.831 78.6288 269.004 78.6288C269.362 78.6288 269.622 78.6967 269.782 78.8325C269.955 78.956 270.041 79.1845 270.041 79.518V85.3348ZM277.174 85.3348H275.228V78.7584C275.315 78.7337 275.438 78.709 275.599 78.6843C275.772 78.6473 275.951 78.6288 276.136 78.6288C276.494 78.6288 276.754 78.6967 276.914 78.8325C277.087 78.956 277.174 79.1845 277.174 79.518V85.3348ZM289.002 81.5372C289.101 81.4754 289.243 81.426 289.428 81.389C289.613 81.3396 289.805 81.3149 290.002 81.3149C290.311 81.3149 290.57 81.3643 290.78 81.4631C291.003 81.5619 291.139 81.7039 291.188 81.8892C291.472 82.729 291.725 83.507 291.948 84.2233C292.17 84.9273 292.386 85.6127 292.596 86.2796C292.806 86.9341 293.016 87.6196 293.226 88.3359H293.3C293.51 87.2491 293.714 86.1993 293.911 85.1866C294.109 84.1616 294.294 83.1365 294.467 82.1115C294.652 81.0741 294.825 79.9811 294.986 78.8325C295.233 78.709 295.51 78.6473 295.819 78.6473C296.103 78.6473 296.338 78.7152 296.523 78.8511C296.708 78.9746 296.801 79.1722 296.801 79.4439C296.801 79.6909 296.77 80.0552 296.708 80.5368C296.647 81.0061 296.56 81.5619 296.449 82.2041C296.338 82.8339 296.208 83.5008 296.06 84.2048C295.912 84.8964 295.757 85.588 295.597 86.2796C295.436 86.9712 295.27 87.6196 295.097 88.2247C294.936 88.8175 294.782 89.3239 294.634 89.7438C294.498 89.8302 294.313 89.9105 294.078 89.9846C293.843 90.0463 293.59 90.0772 293.318 90.0772C292.973 90.0772 292.676 90.0278 292.429 89.929C292.195 89.8179 292.04 89.6758 291.966 89.5029C291.818 89.0954 291.633 88.5767 291.41 87.9468C291.2 87.3046 290.978 86.6069 290.743 85.8535C290.509 85.0878 290.28 84.3283 290.058 83.5749C289.86 84.3159 289.644 85.0816 289.41 85.872C289.175 86.6624 288.946 87.3973 288.724 88.0765C288.502 88.7558 288.304 89.3115 288.131 89.7438C288.02 89.8302 287.853 89.9105 287.631 89.9846C287.409 90.0463 287.156 90.0772 286.872 90.0772C286.538 90.0772 286.242 90.0216 285.982 89.9105C285.735 89.7993 285.575 89.6635 285.501 89.5029C285.377 89.1942 285.229 88.7434 285.056 88.1506C284.883 87.5455 284.698 86.8539 284.5 86.0758C284.315 85.2854 284.13 84.4703 283.945 83.6305C283.759 82.7907 283.587 81.9756 283.426 81.1852C283.278 80.3948 283.16 79.6909 283.074 79.0734C283.173 78.9622 283.315 78.8634 283.5 78.777C283.698 78.6905 283.908 78.6473 284.13 78.6473C284.414 78.6473 284.636 78.7152 284.797 78.8511C284.97 78.9746 285.081 79.1907 285.13 79.4994C285.303 80.3886 285.458 81.2161 285.593 81.9818C285.742 82.7351 285.884 83.4576 286.02 84.1492C286.155 84.8285 286.291 85.5139 286.427 86.2055C286.575 86.8847 286.73 87.5949 286.89 88.3359H286.983C287.131 87.7925 287.279 87.2799 287.427 86.7983C287.576 86.3043 287.724 85.8041 287.872 85.2978C288.033 84.7914 288.199 84.2357 288.372 83.6305C288.557 83.0254 288.767 82.3276 289.002 81.5372ZM302.783 80.296H302.69C302.53 80.7777 302.332 81.3396 302.097 81.9818C301.875 82.6116 301.647 83.2724 301.412 83.964C301.177 84.6432 300.955 85.2854 300.745 85.8906L300.578 86.6316C300.504 86.8539 300.418 87.1194 300.319 87.4281C300.22 87.7369 300.115 88.058 300.004 88.3914C299.905 88.7125 299.806 89.0151 299.708 89.2992C299.609 89.5832 299.535 89.824 299.485 90.0216C299.374 90.0587 299.257 90.0896 299.133 90.1143C299.022 90.1513 298.88 90.1698 298.707 90.1698C298.411 90.1698 298.164 90.1019 297.966 89.9661C297.769 89.8302 297.67 89.6264 297.67 89.3547C297.67 89.2312 297.688 89.1077 297.725 88.9842C297.775 88.8484 297.824 88.7002 297.874 88.5396C298.009 88.1197 298.182 87.6072 298.392 87.0021C298.602 86.3846 298.837 85.7177 299.096 85.0014C299.356 84.2851 299.621 83.5626 299.893 82.8339C300.165 82.0929 300.424 81.3828 300.671 80.7036C300.93 80.0243 301.159 79.4315 301.356 78.9252C301.48 78.8634 301.671 78.8017 301.931 78.7399C302.19 78.6658 302.449 78.6288 302.709 78.6288C303.054 78.6288 303.369 78.6782 303.653 78.777C303.95 78.8758 304.135 79.0425 304.209 79.2771C304.493 79.9687 304.79 80.7653 305.098 81.6669C305.419 82.5561 305.741 83.4823 306.062 84.4456C306.395 85.4089 306.71 86.3475 307.006 87.2614C307.303 88.1753 307.568 89.0028 307.803 89.7438C307.704 89.8673 307.562 89.9661 307.377 90.0402C307.192 90.1143 306.988 90.1513 306.766 90.1513C306.432 90.1513 306.191 90.0896 306.043 89.9661C305.895 89.8302 305.771 89.6203 305.673 89.3362L304.802 86.6316L304.598 85.7609C304.376 85.0693 304.147 84.3839 303.913 83.7046C303.69 83.013 303.481 82.377 303.283 81.7965C303.085 81.2037 302.919 80.7036 302.783 80.296ZM299.689 87.1688L300.375 85.6127H305.265L305.58 87.1688H299.689ZM309.815 80.6665L311.5 80.5739C311.55 81.0061 311.593 81.4816 311.63 82.0003C311.667 82.519 311.692 83.0439 311.704 83.5749C311.716 84.0936 311.723 84.5938 311.723 85.0755V89.9661C311.649 89.9908 311.525 90.0216 311.352 90.0587C311.192 90.0957 311.025 90.1143 310.852 90.1143C310.494 90.1143 310.228 90.0463 310.055 89.9105C309.895 89.7746 309.815 89.5523 309.815 89.2436V80.6665ZM319.059 88.0765L317.354 88.1506C317.243 87.1626 317.175 86.1746 317.15 85.1866C317.138 84.1863 317.132 83.223 317.132 82.2967V78.7584C317.231 78.7337 317.36 78.709 317.521 78.6843C317.682 78.6473 317.848 78.6288 318.021 78.6288C318.379 78.6288 318.639 78.6967 318.799 78.8325C318.972 78.956 319.059 79.1783 319.059 79.4994V88.0765ZM319.059 87.4096V86.7612V89.7438C318.935 89.8549 318.762 89.9414 318.54 90.0031C318.33 90.0772 318.089 90.1143 317.817 90.1143C317.484 90.1143 317.188 90.0587 316.928 89.9475C316.669 89.824 316.44 89.577 316.243 89.2065L313.149 83.8343C312.976 83.5132 312.791 83.1736 312.593 82.8154C312.408 82.4573 312.229 82.1115 312.056 81.778C311.883 81.4446 311.741 81.1543 311.63 80.9073L309.815 81.3334V79.0548C309.938 78.919 310.111 78.814 310.333 78.7399C310.556 78.6658 310.796 78.6288 311.056 78.6288C311.389 78.6288 311.686 78.6905 311.945 78.814C312.204 78.9375 312.433 79.1783 312.63 79.5365L315.743 84.9087C315.928 85.2175 316.113 85.5571 316.298 85.9276C316.484 86.2858 316.656 86.6316 316.817 86.965C316.99 87.2985 317.132 87.5887 317.243 87.8357L319.059 87.4096ZM325.08 80.3516L325.006 78.7399H329.785C329.835 78.814 329.884 78.9252 329.933 79.0734C329.983 79.2092 330.008 79.3512 330.008 79.4994C330.008 79.7711 329.94 79.9811 329.804 80.1293C329.68 80.2775 329.507 80.3516 329.285 80.3516H325.08ZM325.969 78.7399L326.025 80.3516H321.245C321.196 80.2775 321.146 80.1725 321.097 80.0367C321.048 79.8885 321.023 79.7341 321.023 79.5735C321.023 79.3018 321.085 79.0981 321.208 78.9622C321.344 78.814 321.523 78.7399 321.745 78.7399H325.969ZM324.543 79.8514H326.469V89.9661C326.395 89.9908 326.272 90.0216 326.099 90.0587C325.926 90.0957 325.753 90.1143 325.58 90.1143C325.222 90.1143 324.956 90.0463 324.784 89.9105C324.623 89.7623 324.543 89.5276 324.543 89.2065V79.8514ZM338.63 80.3516L338.556 78.7399H343.335C343.385 78.814 343.434 78.9252 343.483 79.0734C343.533 79.2092 343.558 79.3512 343.558 79.4994C343.558 79.7711 343.49 79.9811 343.354 80.1293C343.23 80.2775 343.057 80.3516 342.835 80.3516H338.63ZM339.519 78.7399L339.575 80.3516H334.795C334.746 80.2775 334.696 80.1725 334.647 80.0367C334.598 79.8885 334.573 79.7341 334.573 79.5735C334.573 79.3018 334.635 79.0981 334.758 78.9622C334.894 78.814 335.073 78.7399 335.295 78.7399H339.519ZM338.093 79.8514H340.019V89.9661C339.945 89.9908 339.822 90.0216 339.649 90.0587C339.476 90.0957 339.303 90.1143 339.13 90.1143C338.772 90.1143 338.506 90.0463 338.334 89.9105C338.173 89.7623 338.093 89.5276 338.093 89.2065V79.8514ZM355.411 84.3715C355.411 85.6559 355.171 86.7365 354.689 87.6134C354.207 88.4902 353.553 89.151 352.725 89.5956C351.898 90.0402 350.959 90.2625 349.909 90.2625C348.872 90.2625 347.933 90.0402 347.094 89.5956C346.266 89.151 345.612 88.4902 345.13 87.6134C344.648 86.7365 344.408 85.6559 344.408 84.3715C344.408 83.0871 344.655 82.0065 345.149 81.1296C345.643 80.2528 346.303 79.5921 347.131 79.1475C347.958 78.7029 348.884 78.4806 349.909 78.4806C350.947 78.4806 351.879 78.7029 352.707 79.1475C353.534 79.5921 354.189 80.2528 354.67 81.1296C355.164 82.0065 355.411 83.0871 355.411 84.3715ZM353.411 84.3715C353.411 82.9883 353.09 81.9324 352.447 81.2037C351.818 80.4627 350.972 80.0922 349.909 80.0922C348.86 80.0922 348.014 80.4627 347.372 81.2037C346.729 81.9324 346.408 82.9883 346.408 84.3715C346.408 85.7547 346.723 86.8168 347.353 87.5578C347.995 88.2865 348.847 88.6508 349.909 88.6508C350.984 88.6508 351.836 88.2865 352.466 87.5578C353.096 86.8168 353.411 85.7547 353.411 84.3715ZM364.536 80.3516L364.462 78.7399H369.241C369.291 78.814 369.34 78.9252 369.39 79.0734C369.439 79.2092 369.464 79.3512 369.464 79.4994C369.464 79.7711 369.396 79.9811 369.26 80.1293C369.136 80.2775 368.963 80.3516 368.741 80.3516H364.536ZM365.425 78.7399L365.481 80.3516H360.701C360.652 80.2775 360.603 80.1725 360.553 80.0367C360.504 79.8885 360.479 79.7341 360.479 79.5735C360.479 79.3018 360.541 79.0981 360.664 78.9622C360.8 78.814 360.979 78.7399 361.201 78.7399H365.425ZM363.999 79.8514H365.925V89.9661C365.851 89.9908 365.728 90.0216 365.555 90.0587C365.382 90.0957 365.209 90.1143 365.036 90.1143C364.678 90.1143 364.412 90.0463 364.24 89.9105C364.079 89.7623 363.999 89.5276 363.999 89.2065V79.8514ZM373.359 84.3345H375.192C376.008 84.3345 376.65 84.1554 377.119 83.7972C377.588 83.4391 377.823 82.9142 377.823 82.2226C377.823 81.531 377.582 81.0061 377.101 80.648C376.619 80.2898 375.915 80.1108 374.989 80.1108C374.705 80.1108 374.421 80.1231 374.137 80.1478C373.853 80.1725 373.593 80.2096 373.359 80.259V84.3345ZM375.267 85.8906H371.432V79.6291C371.432 79.4068 371.487 79.2401 371.599 79.1289C371.722 79.0178 371.889 78.9252 372.099 78.8511C372.469 78.7399 372.92 78.6596 373.451 78.6102C373.982 78.5485 374.513 78.5176 375.044 78.5176C376.625 78.5176 377.811 78.8449 378.601 79.4994C379.391 80.154 379.787 81.0555 379.787 82.2041C379.787 82.9451 379.608 83.5935 379.249 84.1492C378.891 84.705 378.379 85.1372 377.712 85.446C377.045 85.7424 376.23 85.8906 375.267 85.8906ZM375.137 85.3533L376.693 84.7976C377.026 85.2051 377.366 85.6312 377.712 86.0758C378.058 86.5204 378.391 86.9527 378.712 87.3726C379.046 87.7801 379.336 88.1568 379.583 88.5026C379.842 88.836 380.046 89.1016 380.194 89.2992C380.12 89.5585 379.978 89.7685 379.768 89.929C379.571 90.0772 379.354 90.1513 379.12 90.1513C378.823 90.1513 378.589 90.0834 378.416 89.9475C378.255 89.7993 378.089 89.6079 377.916 89.3733L375.137 85.3533ZM371.432 85.2792H373.377V89.9661C373.291 89.9908 373.167 90.0216 373.007 90.0587C372.846 90.0957 372.673 90.1143 372.488 90.1143C372.117 90.1143 371.846 90.0463 371.673 89.9105C371.512 89.7623 371.432 89.5276 371.432 89.2065V85.2792ZM386.67 80.296H386.577C386.417 80.7777 386.219 81.3396 385.984 81.9818C385.762 82.6116 385.534 83.2724 385.299 83.964C385.064 84.6432 384.842 85.2854 384.632 85.8906L384.465 86.6316C384.391 86.8539 384.305 87.1194 384.206 87.4281C384.107 87.7369 384.002 88.058 383.891 88.3914C383.792 88.7125 383.694 89.0151 383.595 89.2992C383.496 89.5832 383.422 89.824 383.372 90.0216C383.261 90.0587 383.144 90.0896 383.02 90.1143C382.909 90.1513 382.767 90.1698 382.594 90.1698C382.298 90.1698 382.051 90.1019 381.853 89.9661C381.656 89.8302 381.557 89.6264 381.557 89.3547C381.557 89.2312 381.576 89.1077 381.613 88.9842C381.662 88.8484 381.711 88.7002 381.761 88.5396C381.897 88.1197 382.07 87.6072 382.279 87.0021C382.489 86.3846 382.724 85.7177 382.983 85.0014C383.243 84.2851 383.508 83.5626 383.78 82.8339C384.052 82.0929 384.311 81.3828 384.558 80.7036C384.817 80.0243 385.046 79.4315 385.243 78.9252C385.367 78.8634 385.558 78.8017 385.818 78.7399C386.077 78.6658 386.336 78.6288 386.596 78.6288C386.942 78.6288 387.257 78.6782 387.541 78.777C387.837 78.8758 388.022 79.0425 388.096 79.2771C388.38 79.9687 388.677 80.7653 388.986 81.6669C389.307 82.5561 389.628 83.4823 389.949 84.4456C390.282 85.4089 390.597 86.3475 390.894 87.2614C391.19 88.1753 391.456 89.0028 391.69 89.7438C391.591 89.8673 391.449 89.9661 391.264 90.0402C391.079 90.1143 390.875 90.1513 390.653 90.1513C390.319 90.1513 390.079 90.0896 389.93 89.9661C389.782 89.8302 389.659 89.6203 389.56 89.3362L388.689 86.6316L388.485 85.7609C388.263 85.0693 388.035 84.3839 387.8 83.7046C387.578 83.013 387.368 82.377 387.17 81.7965C386.972 81.2037 386.806 80.7036 386.67 80.296ZM383.576 87.1688L384.262 85.6127H389.152L389.467 87.1688H383.576ZM393.72 82.908H395.647V89.9661C395.573 89.9908 395.449 90.0216 395.276 90.0587C395.116 90.0957 394.943 90.1143 394.758 90.1143C394.4 90.1143 394.134 90.0463 393.961 89.9105C393.801 89.7623 393.72 89.5276 393.72 89.2065V82.908ZM395.647 84.9087H393.72V78.7584C393.807 78.7337 393.93 78.709 394.091 78.6843C394.264 78.6473 394.443 78.6288 394.628 78.6288C394.986 78.6288 395.245 78.6967 395.406 78.8325C395.567 78.956 395.647 79.1845 395.647 79.518V84.9087ZM398.767 80.6665L400.453 80.5739C400.502 81.0061 400.546 81.4816 400.583 82.0003C400.62 82.519 400.644 83.0439 400.657 83.5749C400.669 84.0936 400.675 84.5938 400.675 85.0755V89.9661C400.601 89.9908 400.478 90.0216 400.305 90.0587C400.144 90.0957 399.977 90.1143 399.805 90.1143C399.446 90.1143 399.181 90.0463 399.008 89.9105C398.847 89.7746 398.767 89.5523 398.767 89.2436V80.6665ZM408.011 88.0765L406.307 88.1506C406.196 87.1626 406.128 86.1746 406.103 85.1866C406.091 84.1863 406.085 83.223 406.085 82.2967V78.7584C406.183 78.7337 406.313 78.709 406.474 78.6843C406.634 78.6473 406.801 78.6288 406.974 78.6288C407.332 78.6288 407.591 78.6967 407.752 78.8325C407.925 78.956 408.011 79.1783 408.011 79.4994V88.0765ZM408.011 87.4096V86.7612V89.7438C407.888 89.8549 407.715 89.9414 407.492 90.0031C407.282 90.0772 407.042 90.1143 406.77 90.1143C406.437 90.1143 406.14 90.0587 405.881 89.9475C405.621 89.824 405.393 89.577 405.195 89.2065L402.102 83.8343C401.929 83.5132 401.744 83.1736 401.546 82.8154C401.361 82.4573 401.182 82.1115 401.009 81.778C400.836 81.4446 400.694 81.1543 400.583 80.9073L398.767 81.3334V79.0548C398.891 78.919 399.064 78.814 399.286 78.7399C399.508 78.6658 399.749 78.6288 400.008 78.6288C400.342 78.6288 400.638 78.6905 400.898 78.814C401.157 78.9375 401.385 79.1783 401.583 79.5365L404.695 84.9087C404.88 85.2175 405.066 85.5571 405.251 85.9276C405.436 86.2858 405.609 86.6316 405.77 86.965C405.943 87.2985 406.085 87.5887 406.196 87.8357L408.011 87.4096ZM418.89 80.296H418.797C418.636 80.7777 418.439 81.3396 418.204 81.9818C417.982 82.6116 417.753 83.2724 417.519 83.964C417.284 84.6432 417.062 85.2854 416.852 85.8906L416.685 86.6316C416.611 86.8539 416.525 87.1194 416.426 87.4281C416.327 87.7369 416.222 88.058 416.111 88.3914C416.012 88.7125 415.913 89.0151 415.814 89.2992C415.716 89.5832 415.642 89.824 415.592 90.0216C415.481 90.0587 415.364 90.0896 415.24 90.1143C415.129 90.1513 414.987 90.1698 414.814 90.1698C414.518 90.1698 414.271 90.1019 414.073 89.9661C413.876 89.8302 413.777 89.6264 413.777 89.3547C413.777 89.2312 413.795 89.1077 413.832 88.9842C413.882 88.8484 413.931 88.7002 413.981 88.5396C414.116 88.1197 414.289 87.6072 414.499 87.0021C414.709 86.3846 414.944 85.7177 415.203 85.0014C415.463 84.2851 415.728 83.5626 416 82.8339C416.271 82.0929 416.531 81.3828 416.778 80.7036C417.037 80.0243 417.266 79.4315 417.463 78.9252C417.587 78.8634 417.778 78.8017 418.037 78.7399C418.297 78.6658 418.556 78.6288 418.816 78.6288C419.161 78.6288 419.476 78.6782 419.76 78.777C420.057 78.8758 420.242 79.0425 420.316 79.2771C420.6 79.9687 420.897 80.7653 421.205 81.6669C421.526 82.5561 421.847 83.4823 422.169 84.4456C422.502 85.4089 422.817 86.3475 423.113 87.2614C423.41 88.1753 423.675 89.0028 423.91 89.7438C423.811 89.8673 423.669 89.9661 423.484 90.0402C423.299 90.1143 423.095 90.1513 422.873 90.1513C422.539 90.1513 422.298 90.0896 422.15 89.9661C422.002 89.8302 421.878 89.6203 421.78 89.3362L420.909 86.6316L420.705 85.7609C420.483 85.0693 420.254 84.3839 420.02 83.7046C419.797 83.013 419.587 82.377 419.39 81.7965C419.192 81.2037 419.025 80.7036 418.89 80.296ZM415.796 87.1688L416.481 85.6127H421.372L421.687 87.1688H415.796ZM425.94 82.908H427.867V89.9661C427.792 89.9908 427.669 90.0216 427.496 90.0587C427.336 90.0957 427.163 90.1143 426.977 90.1143C426.619 90.1143 426.354 90.0463 426.181 89.9105C426.02 89.7623 425.94 89.5276 425.94 89.2065V82.908ZM427.867 84.9087H425.94V78.7584C426.026 78.7337 426.15 78.709 426.31 78.6843C426.483 78.6473 426.662 78.6288 426.848 78.6288C427.206 78.6288 427.465 78.6967 427.626 78.8325C427.786 78.956 427.867 79.1845 427.867 79.518V84.9087ZM437.233 85.5942L435.437 86.1684C435.288 86.0573 435.159 85.9091 435.048 85.7238C434.949 85.5386 434.899 85.341 434.899 85.131C434.899 84.9087 434.961 84.7358 435.085 84.6123C435.208 84.4888 435.412 84.3839 435.696 84.2974L436.919 83.9084C437.672 83.6614 438.234 83.3403 438.604 82.9451C438.987 82.5375 439.179 81.9941 439.179 81.3149C439.179 80.7221 438.969 80.2096 438.549 79.7773C438.141 79.3327 437.505 79.1104 436.641 79.1104C436.184 79.1104 435.739 79.1907 435.307 79.3512C434.875 79.4994 434.492 79.7156 434.158 79.9996C434.01 79.8885 433.887 79.7588 433.788 79.6106C433.689 79.4624 433.64 79.2833 433.64 79.0734C433.64 78.777 433.775 78.5114 434.047 78.2768C434.319 78.0298 434.689 77.8384 435.159 77.7025C435.64 77.5543 436.184 77.4802 436.789 77.4802C437.69 77.4802 438.462 77.6469 439.104 77.9804C439.759 78.3015 440.253 78.7523 440.586 79.3327C440.932 79.9008 441.105 80.5615 441.105 81.3149C441.105 82.0682 440.963 82.7166 440.679 83.26C440.395 83.8034 439.963 84.2604 439.382 84.6309C438.814 85.0014 438.098 85.3225 437.233 85.5942ZM435.085 89.0398C435.085 88.694 435.19 88.41 435.399 88.1877C435.622 87.953 435.918 87.8357 436.289 87.8357C436.672 87.8357 436.968 87.953 437.178 88.1877C437.388 88.41 437.493 88.694 437.493 89.0398C437.493 89.3733 437.388 89.6573 437.178 89.892C436.968 90.1143 436.672 90.2254 436.289 90.2254C435.918 90.2254 435.622 90.1143 435.399 89.892C435.19 89.6573 435.085 89.3733 435.085 89.0398Z" fill="#363636"/>
<rect x="215.001" y="56.0031" width="344" height="1" rx="0.5" fill="#B2B4BA" fill-opacity="0.36"/>
<path fill-rule="evenodd" clip-rule="evenodd" d="M577.002 138.67V17.7612C577.002 14.2263 575.595 10.8362 573.091 8.33661C570.587 5.83704 567.191 4.4328 563.65 4.4328H175.716C173.122 4.44971 170.589 5.22127 168.428 6.65304C166.266 8.08481 164.57 10.1146 163.546 12.494C162.522 14.8735 162.216 17.4992 162.664 20.0497C163.113 22.6003 164.296 24.965 166.07 26.8545C181.924 43.4714 190.744 65.5542 190.69 88.5016C190.749 111.457 181.929 133.55 166.07 150.174C164.3 152.063 163.12 154.427 162.674 156.976C162.228 159.524 162.536 162.147 163.559 164.524C164.582 166.901 166.277 168.929 168.436 170.36C170.595 171.791 173.125 172.564 175.716 172.583H542.13C536.562 168.092 533.001 161.213 533.001 153.503C533.001 139.972 543.97 129.003 557.501 129.003C565.456 129.003 572.526 132.795 577.002 138.67Z" fill="white"/>
<g filter="url(#filter1_d_146_1014)">
<circle cx="557.001" cy="153.003" r="18" fill="#553C9A"/>
</g>
<path d="M557.287 152.805C557.287 153.99 557.053 154.994 556.586 155.814C556.118 156.624 555.486 157.239 554.688 157.661C553.89 158.083 552.983 158.294 551.969 158.294C550.965 158.294 550.059 158.083 549.25 157.661C548.452 157.239 547.825 156.624 547.369 155.814C546.913 154.994 546.685 153.99 546.685 152.805C546.685 151.619 546.918 150.622 547.386 149.812C547.853 148.991 548.486 148.376 549.284 147.965C550.082 147.544 550.977 147.333 551.969 147.333C552.972 147.333 553.872 147.544 554.67 147.965C555.468 148.376 556.101 148.991 556.569 149.812C557.047 150.622 557.287 151.619 557.287 152.805ZM554.619 152.805C554.619 151.699 554.38 150.861 553.901 150.291C553.422 149.721 552.778 149.436 551.969 149.436C551.182 149.436 550.549 149.721 550.071 150.291C549.592 150.861 549.352 151.699 549.352 152.805C549.352 153.922 549.592 154.766 550.071 155.336C550.549 155.906 551.188 156.191 551.986 156.191C552.784 156.191 553.422 155.906 553.901 155.336C554.38 154.766 554.619 153.922 554.619 152.805ZM563.497 152.138C564.455 153.164 565.31 154.076 566.062 154.874C566.815 155.672 567.425 156.31 567.892 156.789C567.892 157.222 567.75 157.564 567.465 157.815C567.191 158.054 566.866 158.174 566.49 158.174C566.091 158.174 565.76 158.072 565.498 157.866C565.236 157.661 564.979 157.422 564.729 157.148L560.607 152.497L563.497 152.138ZM560.283 153.54L565.635 147.538C566.285 147.538 566.752 147.663 567.037 147.914C567.333 148.165 567.482 148.467 567.482 148.82C567.482 149.071 567.413 149.316 567.276 149.556C567.151 149.784 566.946 150.035 566.661 150.308L563.566 153.403L560.283 153.54ZM561.787 150.77V157.986C561.673 158.02 561.502 158.049 561.274 158.072C561.058 158.106 560.83 158.123 560.59 158.123C560.077 158.123 559.713 158.032 559.496 157.849C559.291 157.667 559.188 157.353 559.188 156.909V150.77H561.787ZM559.188 154.019V147.606C559.302 147.584 559.473 147.555 559.701 147.521C559.941 147.487 560.169 147.47 560.385 147.47C560.875 147.47 561.229 147.555 561.445 147.726C561.673 147.897 561.787 148.216 561.787 148.684V154.019H559.188Z" fill="white"/>
</g>
<g clip-path="url(#clip1_146_1014)">
<rect x="7" y="3" width="169.575" height="171" rx="84.7875" fill="#553C9A"/>
<path d="M72.4625 62.8407L63.1132 60.3926C63.1132 60.3926 57.4915 77.852 65.3296 83.8464C73.1677 89.8408 72.4625 62.8407 72.4625 62.8407Z" fill="#685A56"/>
<path d="M41.5842 174.003C41.5842 174.003 51.4574 125.564 93.9725 125.564C136.488 125.564 141.988 174.003 141.988 174.003H41.5842Z" fill="#373C44"/>
<path d="M66.1203 90.1293C70.1434 88.4719 72.0612 83.867 70.4039 79.8439C68.7465 75.8208 64.1415 73.903 60.1184 75.5604C56.0953 77.2178 54.1776 81.8227 55.8349 85.8458C57.4923 89.8689 62.0972 91.7867 66.1203 90.1293Z" fill="#CE8282"/>
<path d="M127.201 88.4294C130.277 85.3527 130.277 80.3644 127.201 77.2877C124.124 74.211 119.136 74.211 116.059 77.2877C112.982 80.3644 112.982 85.3527 116.059 88.4294C119.136 91.5062 124.124 91.5061 127.201 88.4294Z" fill="#CE8282"/>
<path d="M102.547 111.458L101.217 93.958L87.5461 95.8319L85.3196 121.422C88.7263 121.05 92.018 119.973 94.9845 118.257C97.9509 116.541 100.527 114.226 102.547 111.458Z" fill="#D19582"/>
<path d="M70.1459 64.0221C73.5612 67.4575 69.5918 75.8699 65.3302 75.346C65.0983 78.5576 65.2301 81.7852 65.7231 84.9673C66.6399 93.2386 70.5892 100.442 78.0948 104.442C85.6005 108.441 95.8464 109.882 103.906 106.577C106.93 105.401 109.682 103.62 111.995 101.344C114.308 99.0681 116.132 96.3443 117.356 93.3393C120.157 86.2871 120.187 77.4012 119.804 69.8452C118.404 41.8779 95.6248 42.291 95.6248 42.291C95.6248 42.291 78.5381 43.0466 70.1459 64.0221Z" fill="#E5B5A3"/>
<path d="M85.3195 121.423L84.312 132.686C84.312 132.686 84.715 138.308 93.8326 139.386C102.95 140.464 104.008 130.943 104.008 130.943L102.527 111.459C100.509 114.224 97.9361 116.539 94.9733 118.254C92.0105 119.97 88.7226 121.049 85.3195 121.423Z" fill="#E5B5A3"/>
<path d="M80.0486 83.7843C80.822 83.7843 81.449 82.5304 81.449 80.9836C81.449 79.4367 80.822 78.1828 80.0486 78.1828C79.2752 78.1828 78.6482 79.4367 78.6482 80.9836C78.6482 82.5304 79.2752 83.7843 80.0486 83.7843Z" fill="#373C44"/>
<path d="M107.341 81.4511C107.341 82.9926 106.716 84.2519 105.941 84.2519C105.165 84.2519 104.54 82.9926 104.54 81.4511C104.54 79.9097 105.175 78.6504 105.921 78.6504C106.666 78.6504 107.341 79.9097 107.341 81.4511Z" fill="#373C44"/>
<path d="M92.8252 82.8586C92.261 83.2112 91.717 83.5537 91.2032 83.866C90.6894 84.1784 90.1957 84.662 90.1353 84.9944C90.1353 85.1355 90.1957 85.2967 90.4274 85.4981C90.6212 85.6888 90.8553 85.8334 91.1125 85.9213C91.4036 85.9896 91.7055 85.998 91.9999 85.946C92.2943 85.8941 92.5751 85.7828 92.8252 85.619C92.6259 85.9164 92.3509 86.1552 92.0287 86.3111C91.7064 86.4669 91.3484 86.534 90.9916 86.5056C90.6229 86.442 90.2763 86.286 89.9842 86.0523C89.801 85.9272 89.6517 85.7587 89.5497 85.5617C89.4477 85.3648 89.3962 85.1456 89.3998 84.9239C89.4766 84.5174 89.7077 84.1564 90.0446 83.9164C90.3147 83.6993 90.613 83.5197 90.9312 83.3825C91.5289 83.1034 92.1691 82.9264 92.8252 82.8586Z" fill="#373C44"/>
<path d="M88.9153 89.4137C89.5233 89.8037 90.1637 90.1408 90.8295 90.4212C91.4667 90.7004 92.1495 90.8608 92.8444 90.8947C93.5204 90.9415 94.1971 90.8131 94.809 90.5219C95.4659 90.2198 96.0847 89.8411 96.6526 89.3936C96.4492 89.7119 96.2272 90.0181 95.9877 90.3104C95.7215 90.5929 95.4202 90.84 95.0911 91.0458C94.4162 91.4855 93.6182 91.6973 92.8142 91.6503C92.0373 91.5973 91.2826 91.3684 90.6072 90.981C89.9317 90.5935 89.3532 90.0576 88.9153 89.4137Z" fill="#373C44"/>
<path d="M78.6593 93.2955C80.284 93.2955 81.6011 91.9784 81.6011 90.3537C81.6011 88.729 80.284 87.4119 78.6593 87.4119C77.0346 87.4119 75.7175 88.729 75.7175 90.3537C75.7175 91.9784 77.0346 93.2955 78.6593 93.2955Z" fill="#CE8282"/>
<path d="M105.94 93.2955C107.565 93.2955 108.882 91.9784 108.882 90.3537C108.882 88.729 107.565 87.4119 105.94 87.4119C104.315 87.4119 102.998 88.729 102.998 90.3537C102.998 91.9784 104.315 93.2955 105.94 93.2955Z" fill="#CE8282"/>
<path d="M115.814 69.9075C115.049 67.681 114.757 65.3134 114.092 63.0466C113.556 60.7247 112.218 58.6663 110.314 57.2335C108.234 56.0424 105.793 55.6452 103.443 56.1152C97.1661 57.0018 91.7561 60.8805 85.7717 62.9962C79.1125 65.3276 71.8776 65.4407 65.1488 63.3186C62.7866 62.6377 60.5819 61.4977 58.6608 59.9637C56.77 58.3205 55.3806 56.1778 54.6518 53.7811C53.923 51.3845 53.8843 48.8309 54.5402 46.4133C54.7446 45.531 55.1831 44.72 55.8096 44.0659C56.1274 43.7444 56.5327 43.5233 56.9751 43.4302C57.4176 43.337 57.8776 43.3759 58.2981 43.542C59.5977 44.1767 59.6682 45.8592 59.8899 47.0984C60.1921 48.7506 60.6757 51.0678 61.8242 52.3171C62.7108 50.8562 62.207 48.4786 62.3884 46.8062C62.4252 45.8405 62.6566 44.8921 63.0686 44.0179C63.4806 43.1437 64.0648 42.3616 64.7862 41.7185C65.1209 41.4281 65.5522 41.2736 65.9951 41.2853C67.1335 41.4264 67.2645 42.9879 67.2142 44.1264C67.1249 46.1571 67.4435 48.1851 68.1511 50.0906C68.0403 46.5947 68.0201 42.8066 70.0955 40.0159C70.2961 39.663 70.5907 39.3726 70.9463 39.177C71.302 38.9814 71.705 38.8882 72.1104 38.9077C72.997 39.0991 73.3899 40.1771 73.3899 41.0838C73.2648 41.9907 73.33 42.9137 73.5813 43.7939C73.8409 44.2552 74.2229 44.6357 74.6852 44.8935C75.1474 45.1513 75.6719 45.2763 76.2008 45.2547C77.244 45.1993 78.2684 44.9535 79.2232 44.5294C86.6723 41.6718 94.4616 39.7956 102.395 38.948C105.417 38.676 108.661 38.6357 111.462 39.9555C113.922 41.1902 115.921 43.1819 117.164 45.6376C118.399 48.079 119.264 50.6898 119.733 53.385C120.773 58.4744 121.213 63.668 121.043 68.8597C121.043 70.2298 121.426 74.3403 119.29 74.2396C117.587 74.1388 116.278 71.2978 115.814 69.9075Z" fill="#685A56"/>
<path d="M101.771 75.4083C102.29 74.5795 102.989 73.8776 103.815 73.3546C104.642 72.8315 105.575 72.5005 106.546 72.3859C107.549 72.2661 108.564 72.4412 109.468 72.8897C110.349 73.3052 111.116 73.9273 111.705 74.7031C111.251 74.5117 110.868 74.2699 110.445 74.0886C110.038 73.9016 109.617 73.7467 109.186 73.6251C108.366 73.3649 107.501 73.2825 106.647 73.3833C104.88 73.6486 103.206 74.344 101.771 75.4083Z" fill="#373C44"/>
<path d="M84.5435 74.718C83.9324 73.9843 83.1594 73.4023 82.2854 73.0177C81.4114 72.6331 80.46 72.4564 79.5062 72.5016C78.5497 72.5538 77.6027 72.7195 76.6853 72.9953L75.2849 73.4688C74.8114 73.6501 74.348 73.8315 73.8442 73.9826C74.2271 73.64 74.6401 73.3378 75.0532 72.9751C75.4663 72.6124 75.9498 72.4512 76.4133 72.2094C77.362 71.7634 78.3887 71.5067 79.4357 71.4538C80.5297 71.4009 81.6144 71.6782 82.5488 72.2497C83.493 72.801 84.2026 73.6791 84.5435 74.718Z" fill="#373C44"/>
</g>
<path d="M542.25 49.7031C536.347 49.7031 531.562 44.9182 531.562 39.0156C531.562 33.1131 536.347 28.3281 542.25 28.3281C548.153 28.3281 552.938 33.1131 552.938 39.0156C552.938 44.9182 548.153 49.7031 542.25 49.7031Z" stroke="#B9AFD4" stroke-width="1.425" stroke-miterlimit="10"/>
<path d="M538.688 35.4531L545.812 42.5781" stroke="#B9AFD4" stroke-width="1.425" stroke-linecap="round" stroke-linejoin="round"/>
<path d="M538.688 42.5781L545.812 35.4531" stroke="#B9AFD4" stroke-width="1.425" stroke-linecap="round" stroke-linejoin="round"/>
<path d="M209.95 33.125L212.725 33.05C212.792 33.6833 212.842 34.35 212.875 35.05C212.908 35.75 212.933 36.4417 212.95 37.125C212.967 37.8083 212.975 38.4667 212.975 39.1V44.975C212.858 45.0083 212.667 45.0417 212.4 45.075C212.133 45.125 211.858 45.15 211.575 45.15C210.992 45.15 210.575 45.05 210.325 44.85C210.075 44.6333 209.95 44.2667 209.95 43.75V33.125ZM222.775 41.65L219.975 41.725C219.842 40.4417 219.767 39.1833 219.75 37.95C219.733 36.7 219.725 35.5 219.725 34.35V29.825C219.875 29.7917 220.075 29.75 220.325 29.7C220.592 29.65 220.867 29.625 221.15 29.625C221.733 29.625 222.15 29.7333 222.4 29.95C222.65 30.15 222.775 30.5083 222.775 31.025V41.65ZM222.775 40.625V39.125V44.6C222.575 44.7667 222.308 44.9 221.975 45C221.658 45.1167 221.283 45.175 220.85 45.175C220.35 45.175 219.892 45.0917 219.475 44.925C219.075 44.7583 218.733 44.4 218.45 43.85L214.75 37.2C214.533 36.8 214.308 36.3833 214.075 35.95C213.858 35.5167 213.642 35.0917 213.425 34.675C213.225 34.2417 213.05 33.85 212.9 33.5L209.95 34.175V30.35C210.133 30.1167 210.4 29.9417 210.75 29.825C211.1 29.7083 211.475 29.65 211.875 29.65C212.375 29.65 212.833 29.7333 213.25 29.9C213.667 30.0667 214.008 30.425 214.275 30.975L218 37.6C218.233 38 218.458 38.425 218.675 38.875C218.892 39.3083 219.1 39.7333 219.3 40.15C219.5 40.5667 219.675 40.95 219.825 41.3L222.775 40.625ZM237.899 39.075C237.899 40.3583 237.649 41.475 237.149 42.425C236.649 43.3583 235.94 44.0833 235.024 44.6C234.124 45.1 233.057 45.35 231.824 45.35C230.607 45.35 229.54 45.1 228.624 44.6C227.707 44.0833 226.999 43.3583 226.499 42.425C225.999 41.4917 225.749 40.375 225.749 39.075C225.749 37.7917 225.999 36.6833 226.499 35.75C227.015 34.8167 227.732 34.1 228.649 33.6C229.565 33.0833 230.632 32.825 231.849 32.825C233.049 32.825 234.099 33.0833 234.999 33.6C235.915 34.1167 236.624 34.8417 237.124 35.775C237.64 36.7083 237.899 37.8083 237.899 39.075ZM231.824 35.25C230.907 35.25 230.182 35.5917 229.649 36.275C229.115 36.9417 228.849 37.875 228.849 39.075C228.849 40.3083 229.107 41.2667 229.624 41.95C230.157 42.6167 230.89 42.95 231.824 42.95C232.757 42.95 233.482 42.6083 233.999 41.925C234.532 41.2417 234.799 40.2917 234.799 39.075C234.799 37.8917 234.532 36.9583 233.999 36.275C233.482 35.5917 232.757 35.25 231.824 35.25ZM240.583 38.4H243.583V41.375C243.583 41.925 243.749 42.325 244.083 42.575C244.416 42.8083 244.883 42.925 245.483 42.925C245.749 42.925 246.033 42.8917 246.333 42.825C246.649 42.7417 246.916 42.65 247.133 42.55C247.266 42.6833 247.374 42.8417 247.458 43.025C247.558 43.2083 247.608 43.425 247.608 43.675C247.608 44.1583 247.383 44.5583 246.933 44.875C246.483 45.1917 245.774 45.35 244.808 45.35C243.508 45.35 242.474 45.0583 241.708 44.475C240.958 43.8917 240.583 42.925 240.583 41.575V38.4ZM242.408 35.825V33.425H247.308C247.391 33.5417 247.466 33.7083 247.533 33.925C247.599 34.1417 247.633 34.3667 247.633 34.6C247.633 35.0167 247.533 35.325 247.333 35.525C247.149 35.725 246.891 35.825 246.558 35.825H242.408ZM243.583 39.075H240.583V30.075C240.716 30.025 240.908 29.975 241.158 29.925C241.408 29.875 241.674 29.85 241.958 29.85C242.524 29.85 242.933 29.9583 243.183 30.175C243.449 30.375 243.583 30.7333 243.583 31.25V39.075ZM250.002 29.65C250.002 29.1667 250.169 28.7667 250.502 28.45C250.836 28.1167 251.261 27.95 251.777 27.95C252.294 27.95 252.711 28.1167 253.027 28.45C253.361 28.7667 253.527 29.1667 253.527 29.65C253.527 30.1167 253.361 30.5167 253.027 30.85C252.711 31.1833 252.294 31.35 251.777 31.35C251.261 31.35 250.836 31.1833 250.502 30.85C250.169 30.5167 250.002 30.1167 250.002 29.65ZM250.252 38.4H253.277V44.95C253.161 45 252.977 45.0417 252.727 45.075C252.477 45.125 252.202 45.15 251.902 45.15C251.352 45.15 250.936 45.05 250.652 44.85C250.386 44.65 250.252 44.2833 250.252 43.75V38.4ZM253.277 39.95H250.252V33.275C250.386 33.2417 250.577 33.2 250.827 33.15C251.077 33.1 251.344 33.075 251.627 33.075C252.211 33.075 252.627 33.1833 252.877 33.4C253.144 33.6 253.277 33.9667 253.277 34.5V39.95ZM259.121 36.325V33.95H264.171C264.238 34.0667 264.305 34.2333 264.371 34.45C264.438 34.65 264.471 34.875 264.471 35.125C264.471 35.5417 264.371 35.85 264.171 36.05C263.988 36.2333 263.73 36.325 263.396 36.325H259.121ZM259.596 32.75V35.95H256.671V32.625C256.671 31.575 256.88 30.725 257.296 30.075C257.73 29.4083 258.321 28.925 259.071 28.625C259.821 28.3083 260.688 28.15 261.671 28.15C262.755 28.15 263.571 28.2917 264.121 28.575C264.688 28.8583 264.971 29.2833 264.971 29.85C264.971 30.1 264.913 30.325 264.796 30.525C264.696 30.725 264.571 30.8917 264.421 31.025C264.121 30.8917 263.771 30.7833 263.371 30.7C262.971 30.6167 262.555 30.575 262.121 30.575C261.238 30.575 260.596 30.7417 260.196 31.075C259.796 31.4083 259.596 31.9667 259.596 32.75ZM256.671 35.075H259.721V44.95C259.588 45 259.396 45.0417 259.146 45.075C258.896 45.125 258.63 45.15 258.346 45.15C257.78 45.15 257.355 45.05 257.071 44.85C256.805 44.65 256.671 44.2833 256.671 43.75V35.075ZM266.796 29.65C266.796 29.1667 266.963 28.7667 267.296 28.45C267.63 28.1167 268.055 27.95 268.571 27.95C269.088 27.95 269.505 28.1167 269.821 28.45C270.155 28.7667 270.321 29.1667 270.321 29.65C270.321 30.1167 270.155 30.5167 269.821 30.85C269.505 31.1833 269.088 31.35 268.571 31.35C268.055 31.35 267.63 31.1833 267.296 30.85C266.963 30.5167 266.796 30.1167 266.796 29.65ZM267.046 38.4H270.071V44.95C269.955 45 269.771 45.0417 269.521 45.075C269.271 45.125 268.996 45.15 268.696 45.15C268.146 45.15 267.73 45.05 267.446 44.85C267.18 44.65 267.046 44.2833 267.046 43.75V38.4ZM270.071 39.95H267.046V33.275C267.18 33.2417 267.371 33.2 267.621 33.15C267.871 33.1 268.138 33.075 268.421 33.075C269.005 33.075 269.421 33.1833 269.671 33.4C269.938 33.6 270.071 33.9667 270.071 34.5V39.95ZM279.468 35.275C278.468 35.275 277.627 35.6083 276.943 36.275C276.26 36.925 275.918 37.875 275.918 39.125C275.918 40.3583 276.243 41.3 276.893 41.95C277.56 42.6 278.418 42.925 279.468 42.925C280.068 42.925 280.585 42.8417 281.018 42.675C281.452 42.5083 281.827 42.3333 282.143 42.15C282.393 42.3 282.585 42.4833 282.718 42.7C282.852 42.9 282.918 43.1417 282.918 43.425C282.918 43.9917 282.577 44.4583 281.893 44.825C281.227 45.175 280.335 45.35 279.218 45.35C277.952 45.35 276.835 45.125 275.868 44.675C274.918 44.2083 274.177 43.5083 273.643 42.575C273.11 41.6417 272.843 40.4917 272.843 39.125C272.843 37.725 273.127 36.5583 273.693 35.625C274.26 34.6917 275.018 33.9917 275.968 33.525C276.935 33.0583 277.993 32.825 279.143 32.825C280.243 32.825 281.127 33.025 281.793 33.425C282.46 33.8083 282.793 34.275 282.793 34.825C282.793 35.075 282.727 35.3083 282.593 35.525C282.46 35.725 282.293 35.8917 282.093 36.025C281.777 35.8417 281.402 35.675 280.968 35.525C280.552 35.3583 280.052 35.275 279.468 35.275ZM290.177 43.05C290.694 43.05 291.152 43 291.552 42.9C291.952 42.8 292.244 42.6917 292.427 42.575V39.7L289.927 39.925C289.244 39.9917 288.719 40.15 288.352 40.4C288.002 40.6333 287.827 40.9917 287.827 41.475C287.827 41.9583 288.019 42.3417 288.402 42.625C288.785 42.9083 289.377 43.05 290.177 43.05ZM290.077 32.825C291.694 32.825 292.977 33.175 293.927 33.875C294.894 34.5583 295.377 35.6417 295.377 37.125V42.9C295.377 43.3 295.285 43.6167 295.102 43.85C294.919 44.0667 294.677 44.2667 294.377 44.45C293.91 44.7167 293.319 44.9333 292.602 45.1C291.885 45.2833 291.077 45.375 290.177 45.375C288.527 45.375 287.227 45.0583 286.277 44.425C285.327 43.775 284.852 42.8167 284.852 41.55C284.852 40.4333 285.202 39.5833 285.902 39C286.619 38.4 287.652 38.0333 289.002 37.9L292.427 37.55V37.1C292.427 36.4167 292.194 35.925 291.727 35.625C291.26 35.325 290.61 35.175 289.777 35.175C289.127 35.175 288.494 35.2583 287.877 35.425C287.26 35.5917 286.71 35.7917 286.227 36.025C286.06 35.8917 285.91 35.7167 285.777 35.5C285.66 35.2667 285.602 35.025 285.602 34.775C285.602 34.175 285.927 33.7333 286.577 33.45C287.044 33.25 287.585 33.1 288.202 33C288.819 32.8833 289.444 32.825 290.077 32.825ZM298.59 38.4H301.59V41.375C301.59 41.925 301.757 42.325 302.09 42.575C302.424 42.8083 302.89 42.925 303.49 42.925C303.757 42.925 304.04 42.8917 304.34 42.825C304.657 42.7417 304.924 42.65 305.14 42.55C305.274 42.6833 305.382 42.8417 305.465 43.025C305.565 43.2083 305.615 43.425 305.615 43.675C305.615 44.1583 305.39 44.5583 304.94 44.875C304.49 45.1917 303.782 45.35 302.815 45.35C301.515 45.35 300.482 45.0583 299.715 44.475C298.965 43.8917 298.59 42.925 298.59 41.575V38.4ZM300.415 35.825V33.425H305.315C305.399 33.5417 305.474 33.7083 305.54 33.925C305.607 34.1417 305.64 34.3667 305.64 34.6C305.64 35.0167 305.54 35.325 305.34 35.525C305.157 35.725 304.899 35.825 304.565 35.825H300.415ZM301.59 39.075H298.59V30.075C298.724 30.025 298.915 29.975 299.165 29.925C299.415 29.875 299.682 29.85 299.965 29.85C300.532 29.85 300.94 29.9583 301.19 30.175C301.457 30.375 301.59 30.7333 301.59 31.25V39.075ZM308.01 29.65C308.01 29.1667 308.177 28.7667 308.51 28.45C308.843 28.1167 309.268 27.95 309.785 27.95C310.302 27.95 310.718 28.1167 311.035 28.45C311.368 28.7667 311.535 29.1667 311.535 29.65C311.535 30.1167 311.368 30.5167 311.035 30.85C310.718 31.1833 310.302 31.35 309.785 31.35C309.268 31.35 308.843 31.1833 308.51 30.85C308.177 30.5167 308.01 30.1167 308.01 29.65ZM308.26 38.4H311.285V44.95C311.168 45 310.985 45.0417 310.735 45.075C310.485 45.125 310.21 45.15 309.91 45.15C309.36 45.15 308.943 45.05 308.66 44.85C308.393 44.65 308.26 44.2833 308.26 43.75V38.4ZM311.285 39.95H308.26V33.275C308.393 33.2417 308.585 33.2 308.835 33.15C309.085 33.1 309.352 33.075 309.635 33.075C310.218 33.075 310.635 33.1833 310.885 33.4C311.152 33.6 311.285 33.9667 311.285 34.5V39.95ZM326.204 39.075C326.204 40.3583 325.954 41.475 325.454 42.425C324.954 43.3583 324.246 44.0833 323.329 44.6C322.429 45.1 321.363 45.35 320.129 45.35C318.913 45.35 317.846 45.1 316.929 44.6C316.013 44.0833 315.304 43.3583 314.804 42.425C314.304 41.4917 314.054 40.375 314.054 39.075C314.054 37.7917 314.304 36.6833 314.804 35.75C315.321 34.8167 316.038 34.1 316.954 33.6C317.871 33.0833 318.938 32.825 320.154 32.825C321.354 32.825 322.404 33.0833 323.304 33.6C324.221 34.1167 324.929 34.8417 325.429 35.775C325.946 36.7083 326.204 37.8083 326.204 39.075ZM320.129 35.25C319.213 35.25 318.488 35.5917 317.954 36.275C317.421 36.9417 317.154 37.875 317.154 39.075C317.154 40.3083 317.413 41.2667 317.929 41.95C318.463 42.6167 319.196 42.95 320.129 42.95C321.063 42.95 321.788 42.6083 322.304 41.925C322.838 41.2417 323.104 40.2917 323.104 39.075C323.104 37.8917 322.838 36.9583 322.304 36.275C321.788 35.5917 321.063 35.25 320.129 35.25ZM339.738 37.275V39.725H336.713V37.4C336.713 36.65 336.497 36.1083 336.063 35.775C335.647 35.425 335.08 35.25 334.363 35.25C333.863 35.25 333.405 35.3167 332.988 35.45C332.572 35.5667 332.205 35.7167 331.888 35.9V39.725H328.838V35.7C328.838 35.3 328.922 34.975 329.088 34.725C329.255 34.475 329.513 34.2333 329.863 34C330.347 33.6833 330.98 33.4083 331.763 33.175C332.563 32.9417 333.438 32.825 334.388 32.825C336.072 32.825 337.38 33.2 338.313 33.95C339.263 34.7 339.738 35.8083 339.738 37.275ZM328.838 38.475H331.888V44.95C331.755 45 331.563 45.0417 331.313 45.075C331.063 45.125 330.797 45.15 330.513 45.15C329.947 45.15 329.522 45.05 329.238 44.85C328.972 44.65 328.838 44.2833 328.838 43.75V38.475ZM336.713 38.475H339.738V44.95C339.622 45 339.43 45.0417 339.163 45.075C338.913 45.125 338.647 45.15 338.363 45.15C337.797 45.15 337.38 45.05 337.113 44.85C336.847 44.65 336.713 44.2833 336.713 43.75V38.475Z" fill="#553C9A"/>
<rect x="208.25" y="63.25" width="343.5" height="0.5" rx="0.25" fill="#B2B4BA" fill-opacity="0.36" stroke="#B9AFD4" stroke-width="0.5"/>
<path d="M217.244 95.2758C217.244 94.3001 217.059 93.5097 216.688 92.9046C216.318 92.2871 215.824 91.8363 215.206 91.5522C214.589 91.2558 213.891 91.1076 213.113 91.1076C212.779 91.1076 212.477 91.12 212.205 91.1447C211.946 91.1694 211.699 91.2003 211.464 91.2373V99.4624C211.724 99.5242 212.008 99.5674 212.316 99.5921C212.625 99.6168 212.934 99.6291 213.243 99.6291C214.527 99.6291 215.515 99.2648 216.207 98.5362C216.898 97.7952 217.244 96.7084 217.244 95.2758ZM219.226 95.2758C219.226 96.6096 218.979 97.7211 218.485 98.6103C217.991 99.4871 217.293 100.142 216.392 100.574C215.503 101.006 214.453 101.222 213.243 101.222C212.847 101.222 212.384 101.204 211.853 101.167C211.322 101.13 210.828 101.037 210.371 100.889C209.815 100.704 209.538 100.376 209.538 99.907V90.6075C209.538 90.3975 209.593 90.237 209.704 90.1258C209.828 90.0023 209.995 89.9097 210.204 89.8479C210.624 89.7121 211.088 89.6256 211.594 89.5886C212.1 89.5392 212.594 89.5145 213.076 89.5145C214.299 89.5145 215.367 89.7306 216.281 90.1629C217.207 90.5828 217.929 91.2188 218.448 92.0709C218.967 92.9107 219.226 93.979 219.226 95.2758ZM232.069 95.3684C232.069 96.6528 231.828 97.7334 231.346 98.6103C230.864 99.4871 230.21 100.148 229.382 100.592C228.555 101.037 227.616 101.259 226.567 101.259C225.529 101.259 224.591 101.037 223.751 100.592C222.923 100.148 222.269 99.4871 221.787 98.6103C221.306 97.7334 221.065 96.6528 221.065 95.3684C221.065 94.084 221.312 93.0034 221.806 92.1265C222.3 91.2497 222.96 90.5889 223.788 90.1443C224.615 89.6997 225.542 89.4774 226.567 89.4774C227.604 89.4774 228.537 89.6997 229.364 90.1443C230.191 90.5889 230.846 91.2497 231.328 92.1265C231.822 93.0034 232.069 94.084 232.069 95.3684ZM230.068 95.3684C230.068 93.9852 229.747 92.9293 229.105 92.2006C228.475 91.4596 227.629 91.0891 226.567 91.0891C225.517 91.0891 224.671 91.4596 224.029 92.2006C223.387 92.9293 223.065 93.9852 223.065 95.3684C223.065 96.7516 223.38 97.8137 224.01 98.5547C224.652 99.2833 225.505 99.6477 226.567 99.6477C227.641 99.6477 228.493 99.2833 229.123 98.5547C229.753 97.8137 230.068 96.7516 230.068 95.3684ZM242.823 97.0912H241.101C240.767 96.5972 240.409 96.06 240.026 95.4795C239.656 94.8991 239.285 94.3063 238.915 93.7011C238.544 93.096 238.198 92.5032 237.877 91.9227C237.556 91.3423 237.272 90.8051 237.025 90.3111C237.099 90.1505 237.223 90.0023 237.396 89.8665C237.568 89.7183 237.791 89.6442 238.062 89.6442C238.359 89.6442 238.594 89.7183 238.766 89.8665C238.939 90.0023 239.112 90.2308 239.285 90.5519C239.396 90.7618 239.544 91.0274 239.73 91.3485C239.915 91.6696 240.106 92.0154 240.304 92.3859C240.514 92.7564 240.724 93.1269 240.934 93.4974C241.144 93.8679 241.329 94.2075 241.49 94.5162C241.662 94.825 241.805 95.072 241.916 95.2572H242.008C242.391 94.5903 242.737 93.9605 243.046 93.3677C243.367 92.7749 243.669 92.1883 243.953 91.6078C244.25 91.0274 244.552 90.4346 244.861 89.8294C244.972 89.7677 245.102 89.7244 245.25 89.6997C245.398 89.6627 245.534 89.6442 245.658 89.6442C245.942 89.6442 246.164 89.7183 246.325 89.8665C246.498 90.0023 246.584 90.1999 246.584 90.4593C246.584 90.5951 246.498 90.8483 246.325 91.2188C246.164 91.5769 245.923 92.0401 245.602 92.6082C245.281 93.1639 244.886 93.8246 244.417 94.5903C243.96 95.3437 243.429 96.1773 242.823 97.0912ZM241.008 96.2761H242.916V100.963C242.842 100.988 242.718 101.019 242.546 101.056C242.385 101.093 242.218 101.111 242.045 101.111C241.675 101.111 241.409 101.043 241.249 100.907C241.088 100.759 241.008 100.531 241.008 100.222V96.2761ZM258.662 95.3684C258.662 96.6528 258.421 97.7334 257.94 98.6103C257.458 99.4871 256.803 100.148 255.976 100.592C255.149 101.037 254.21 101.259 253.16 101.259C252.123 101.259 251.184 101.037 250.344 100.592C249.517 100.148 248.862 99.4871 248.381 98.6103C247.899 97.7334 247.658 96.6528 247.658 95.3684C247.658 94.084 247.905 93.0034 248.399 92.1265C248.893 91.2497 249.554 90.5889 250.381 90.1443C251.209 89.6997 252.135 89.4774 253.16 89.4774C254.198 89.4774 255.13 89.6997 255.957 90.1443C256.785 90.5889 257.439 91.2497 257.921 92.1265C258.415 93.0034 258.662 94.084 258.662 95.3684ZM256.661 95.3684C256.661 93.9852 256.34 92.9293 255.698 92.2006C255.068 91.4596 254.222 91.0891 253.16 91.0891C252.11 91.0891 251.264 91.4596 250.622 92.2006C249.98 92.9293 249.659 93.9852 249.659 95.3684C249.659 96.7516 249.974 97.8137 250.604 98.5547C251.246 99.2833 252.098 99.6477 253.16 99.6477C254.235 99.6477 255.087 99.2833 255.717 98.5547C256.346 97.8137 256.661 96.7516 256.661 95.3684ZM265.634 101.259C264.683 101.259 263.868 101.086 263.189 100.741C262.51 100.395 261.991 99.907 261.633 99.2772C261.287 98.635 261.114 97.894 261.114 97.0542V95.6277H263.041V96.943C263.041 97.8322 263.288 98.5053 263.782 98.9622C264.276 99.4192 264.893 99.6477 265.634 99.6477C266.375 99.6477 266.993 99.4192 267.487 98.9622C267.981 98.5053 268.228 97.8322 268.228 96.943V95.6277H270.173V97.0542C270.173 97.894 269.994 98.635 269.636 99.2772C269.29 99.907 268.777 100.395 268.098 100.741C267.419 101.086 266.597 101.259 265.634 101.259ZM263.041 96.3317H261.114V89.7553C261.188 89.7306 261.312 89.7059 261.485 89.6812C261.657 89.6442 261.83 89.6256 262.003 89.6256C262.361 89.6256 262.621 89.6936 262.781 89.8294C262.954 89.9529 263.041 90.1814 263.041 90.5148V96.3317ZM270.173 96.3317H268.228V89.7553C268.314 89.7306 268.438 89.7059 268.598 89.6812C268.771 89.6442 268.95 89.6256 269.135 89.6256C269.494 89.6256 269.753 89.6936 269.913 89.8294C270.086 89.9529 270.173 90.1814 270.173 90.5148V96.3317ZM282.001 92.5341C282.1 92.4723 282.242 92.4229 282.427 92.3859C282.613 92.3365 282.804 92.3118 283.002 92.3118C283.31 92.3118 283.57 92.3612 283.78 92.46C284.002 92.5588 284.138 92.7008 284.187 92.886C284.471 93.7258 284.724 94.5039 284.947 95.2202C285.169 95.9241 285.385 96.6096 285.595 97.2765C285.805 97.931 286.015 98.6164 286.225 99.3327H286.299C286.509 98.2459 286.713 97.1962 286.91 96.1835C287.108 95.1584 287.293 94.1334 287.466 93.1083C287.651 92.0709 287.824 90.978 287.985 89.8294C288.232 89.7059 288.51 89.6442 288.819 89.6442C289.103 89.6442 289.337 89.7121 289.522 89.8479C289.708 89.9714 289.8 90.169 289.8 90.4407C289.8 90.6877 289.769 91.0521 289.708 91.5337C289.646 92.003 289.56 92.5588 289.448 93.201C289.337 93.8308 289.208 94.4977 289.059 95.2017C288.911 95.8933 288.757 96.5849 288.596 97.2765C288.436 97.9681 288.269 98.6164 288.096 99.2216C287.935 99.8144 287.781 100.321 287.633 100.741C287.497 100.827 287.312 100.907 287.077 100.981C286.843 101.043 286.589 101.074 286.318 101.074C285.972 101.074 285.675 101.025 285.428 100.926C285.194 100.815 285.039 100.673 284.965 100.5C284.817 100.092 284.632 99.5736 284.41 98.9437C284.2 98.3015 283.977 97.6037 283.743 96.8504C283.508 96.0847 283.28 95.3252 283.057 94.5718C282.86 95.3128 282.644 96.0785 282.409 96.8689C282.174 97.6593 281.946 98.3941 281.723 99.0734C281.501 99.7526 281.304 100.308 281.131 100.741C281.019 100.827 280.853 100.907 280.63 100.981C280.408 101.043 280.155 101.074 279.871 101.074C279.537 101.074 279.241 101.019 278.982 100.907C278.735 100.796 278.574 100.66 278.5 100.5C278.377 100.191 278.228 99.7403 278.055 99.1475C277.883 98.5423 277.697 97.8507 277.5 97.0727C277.314 96.2823 277.129 95.4672 276.944 94.6274C276.759 93.7876 276.586 92.9725 276.425 92.1821C276.277 91.3917 276.16 90.6877 276.073 90.0702C276.172 89.9591 276.314 89.8603 276.499 89.7738C276.697 89.6874 276.907 89.6442 277.129 89.6442C277.413 89.6442 277.636 89.7121 277.796 89.8479C277.969 89.9714 278.08 90.1876 278.13 90.4963C278.302 91.3855 278.457 92.213 278.593 92.9787C278.741 93.732 278.883 94.4545 279.019 95.1461C279.155 95.8253 279.29 96.5108 279.426 97.2024C279.575 97.8816 279.729 98.5917 279.889 99.3327H279.982C280.13 98.7893 280.278 98.2768 280.427 97.7952C280.575 97.3012 280.723 96.801 280.871 96.2946C281.032 95.7883 281.199 95.2325 281.371 94.6274C281.557 94.0222 281.767 93.3245 282.001 92.5341ZM295.782 91.2929H295.689C295.529 91.7745 295.331 92.3365 295.097 92.9787C294.874 93.6085 294.646 94.2692 294.411 94.9608C294.177 95.6401 293.954 96.2823 293.744 96.8874L293.578 97.6284C293.503 97.8507 293.417 98.1163 293.318 98.425C293.219 98.7338 293.114 99.0549 293.003 99.3883C292.904 99.7094 292.806 100.012 292.707 100.296C292.608 100.58 292.534 100.821 292.485 101.019C292.373 101.056 292.256 101.086 292.133 101.111C292.021 101.148 291.879 101.167 291.707 101.167C291.41 101.167 291.163 101.099 290.966 100.963C290.768 100.827 290.669 100.623 290.669 100.352C290.669 100.228 290.688 100.105 290.725 99.9811C290.774 99.8453 290.823 99.6971 290.873 99.5365C291.009 99.1166 291.182 98.6041 291.392 97.9989C291.602 97.3814 291.836 96.7145 292.096 95.9982C292.355 95.2819 292.62 94.5595 292.892 93.8308C293.164 93.0898 293.423 92.3797 293.67 91.7004C293.93 91.0212 294.158 90.4284 294.356 89.922C294.479 89.8603 294.671 89.7985 294.93 89.7368C295.189 89.6627 295.449 89.6256 295.708 89.6256C296.054 89.6256 296.369 89.675 296.653 89.7738C296.949 89.8726 297.134 90.0394 297.208 90.274C297.492 90.9656 297.789 91.7622 298.098 92.6637C298.419 93.5529 298.74 94.4792 299.061 95.4425C299.394 96.4058 299.709 97.3444 300.006 98.2583C300.302 99.1722 300.568 99.9996 300.802 100.741C300.703 100.864 300.561 100.963 300.376 101.037C300.191 101.111 299.987 101.148 299.765 101.148C299.431 101.148 299.191 101.086 299.042 100.963C298.894 100.827 298.771 100.617 298.672 100.333L297.801 97.6284L297.597 96.7578C297.375 96.0662 297.147 95.3807 296.912 94.7015C296.69 94.0099 296.48 93.3739 296.282 92.7934C296.085 92.2006 295.918 91.7004 295.782 91.2929ZM292.688 98.1657L293.374 96.6096H298.264L298.579 98.1657H292.688ZM302.814 91.6634L304.5 91.5708C304.549 92.003 304.592 92.4785 304.629 92.9972C304.666 93.5159 304.691 94.0408 304.703 94.5718C304.716 95.0905 304.722 95.5907 304.722 96.0723V100.963C304.648 100.988 304.524 101.019 304.351 101.056C304.191 101.093 304.024 101.111 303.851 101.111C303.493 101.111 303.228 101.043 303.055 100.907C302.894 100.772 302.814 100.549 302.814 100.24V91.6634ZM312.058 99.0734L310.354 99.1475C310.242 98.1595 310.174 97.1715 310.15 96.1835C310.137 95.1831 310.131 94.2198 310.131 93.2936V89.7553C310.23 89.7306 310.36 89.7059 310.52 89.6812C310.681 89.6442 310.848 89.6256 311.02 89.6256C311.379 89.6256 311.638 89.6936 311.798 89.8294C311.971 89.9529 312.058 90.1752 312.058 90.4963V99.0734ZM312.058 98.4065V97.7581V100.741C311.934 100.852 311.761 100.938 311.539 101C311.329 101.074 311.088 101.111 310.817 101.111C310.483 101.111 310.187 101.056 309.927 100.944C309.668 100.821 309.44 100.574 309.242 100.203L306.148 94.8312C305.975 94.5101 305.79 94.1704 305.593 93.8123C305.407 93.4541 305.228 93.1083 305.055 92.7749C304.882 92.4414 304.74 92.1512 304.629 91.9042L302.814 92.3303V90.0517C302.937 89.9159 303.11 89.8109 303.333 89.7368C303.555 89.6627 303.796 89.6256 304.055 89.6256C304.388 89.6256 304.685 89.6874 304.944 89.8109C305.204 89.9344 305.432 90.1752 305.63 90.5334L308.742 95.9056C308.927 96.2144 309.112 96.554 309.298 96.9245C309.483 97.2826 309.656 97.6284 309.816 97.9619C309.989 98.2953 310.131 98.5856 310.242 98.8326L312.058 98.4065ZM318.079 91.3485L318.005 89.7368H322.785C322.834 89.8109 322.883 89.922 322.933 90.0702C322.982 90.2061 323.007 90.3481 323.007 90.4963C323.007 90.768 322.939 90.978 322.803 91.1262C322.68 91.2744 322.507 91.3485 322.284 91.3485H318.079ZM318.968 89.7368L319.024 91.3485H314.244C314.195 91.2744 314.146 91.1694 314.096 91.0335C314.047 90.8853 314.022 90.731 314.022 90.5704C314.022 90.2987 314.084 90.0949 314.207 89.9591C314.343 89.8109 314.522 89.7368 314.745 89.7368H318.968ZM317.542 90.8483H319.469V100.963C319.394 100.988 319.271 101.019 319.098 101.056C318.925 101.093 318.752 101.111 318.579 101.111C318.221 101.111 317.956 101.043 317.783 100.907C317.622 100.759 317.542 100.525 317.542 100.203V90.8483ZM331.629 91.3485L331.555 89.7368H336.335C336.384 89.8109 336.433 89.922 336.483 90.0702C336.532 90.2061 336.557 90.3481 336.557 90.4963C336.557 90.768 336.489 90.978 336.353 91.1262C336.23 91.2744 336.057 91.3485 335.834 91.3485H331.629ZM332.518 89.7368L332.574 91.3485H327.795C327.745 91.2744 327.696 91.1694 327.646 91.0335C327.597 90.8853 327.572 90.731 327.572 90.5704C327.572 90.2987 327.634 90.0949 327.757 89.9591C327.893 89.8109 328.072 89.7368 328.295 89.7368H332.518ZM331.092 90.8483H333.019V100.963C332.944 100.988 332.821 101.019 332.648 101.056C332.475 101.093 332.302 101.111 332.129 101.111C331.771 101.111 331.506 101.043 331.333 100.907C331.172 100.759 331.092 100.525 331.092 100.203V90.8483ZM348.411 95.3684C348.411 96.6528 348.17 97.7334 347.688 98.6103C347.207 99.4871 346.552 100.148 345.725 100.592C344.897 101.037 343.959 101.259 342.909 101.259C341.871 101.259 340.933 101.037 340.093 100.592C339.266 100.148 338.611 99.4871 338.129 98.6103C337.648 97.7334 337.407 96.6528 337.407 95.3684C337.407 94.084 337.654 93.0034 338.148 92.1265C338.642 91.2497 339.303 90.5889 340.13 90.1443C340.957 89.6997 341.884 89.4774 342.909 89.4774C343.946 89.4774 344.879 89.6997 345.706 90.1443C346.533 90.5889 347.188 91.2497 347.67 92.1265C348.164 93.0034 348.411 94.084 348.411 95.3684ZM346.41 95.3684C346.41 93.9852 346.089 92.9293 345.447 92.2006C344.817 91.4596 343.971 91.0891 342.909 91.0891C341.859 91.0891 341.013 91.4596 340.371 92.2006C339.729 92.9293 339.408 93.9852 339.408 95.3684C339.408 96.7516 339.722 97.8137 340.352 98.5547C340.995 99.2833 341.847 99.6477 342.909 99.6477C343.983 99.6477 344.835 99.2833 345.465 98.5547C346.095 97.8137 346.41 96.7516 346.41 95.3684ZM357.535 91.3485L357.461 89.7368H362.241C362.29 89.8109 362.339 89.922 362.389 90.0702C362.438 90.2061 362.463 90.3481 362.463 90.4963C362.463 90.768 362.395 90.978 362.259 91.1262C362.136 91.2744 361.963 91.3485 361.74 91.3485H357.535ZM358.424 89.7368L358.48 91.3485H353.701C353.651 91.2744 353.602 91.1694 353.552 91.0335C353.503 90.8853 353.478 90.731 353.478 90.5704C353.478 90.2987 353.54 90.0949 353.664 89.9591C353.799 89.8109 353.978 89.7368 354.201 89.7368H358.424ZM356.998 90.8483H358.925V100.963C358.851 100.988 358.727 101.019 358.554 101.056C358.381 101.093 358.208 101.111 358.035 101.111C357.677 101.111 357.412 101.043 357.239 100.907C357.078 100.759 356.998 100.525 356.998 100.203V90.8483ZM366.358 95.3313H368.192C369.007 95.3313 369.649 95.1523 370.118 94.7941C370.588 94.436 370.822 93.9111 370.822 93.2195C370.822 92.5279 370.581 92.003 370.1 91.6449C369.618 91.2867 368.914 91.1076 367.988 91.1076C367.704 91.1076 367.42 91.12 367.136 91.1447C366.852 91.1694 366.592 91.2064 366.358 91.2558V95.3313ZM368.266 96.8874H364.431V90.626C364.431 90.4037 364.487 90.237 364.598 90.1258C364.721 90.0147 364.888 89.922 365.098 89.8479C365.469 89.7368 365.919 89.6565 366.45 89.6071C366.981 89.5454 367.513 89.5145 368.044 89.5145C369.624 89.5145 370.81 89.8418 371.6 90.4963C372.391 91.1509 372.786 92.0524 372.786 93.201C372.786 93.942 372.607 94.5903 372.249 95.1461C371.891 95.7018 371.378 96.1341 370.711 96.4428C370.044 96.7392 369.229 96.8874 368.266 96.8874ZM368.136 96.3502L369.692 95.7945C370.026 96.202 370.365 96.6281 370.711 97.0727C371.057 97.5173 371.39 97.9495 371.712 98.3694C372.045 98.777 372.335 99.1537 372.582 99.4995C372.842 99.8329 373.045 100.098 373.194 100.296C373.119 100.555 372.977 100.765 372.767 100.926C372.57 101.074 372.354 101.148 372.119 101.148C371.823 101.148 371.588 101.08 371.415 100.944C371.255 100.796 371.088 100.605 370.915 100.37L368.136 96.3502ZM364.431 96.2761H366.376V100.963C366.29 100.988 366.166 101.019 366.006 101.056C365.845 101.093 365.672 101.111 365.487 101.111C365.117 101.111 364.845 101.043 364.672 100.907C364.511 100.759 364.431 100.525 364.431 100.203V96.2761ZM379.669 91.2929H379.577C379.416 91.7745 379.218 92.3365 378.984 92.9787C378.761 93.6085 378.533 94.2692 378.298 94.9608C378.064 95.6401 377.841 96.2823 377.631 96.8874L377.465 97.6284C377.391 97.8507 377.304 98.1163 377.205 98.425C377.107 98.7338 377.002 99.0549 376.89 99.3883C376.792 99.7094 376.693 100.012 376.594 100.296C376.495 100.58 376.421 100.821 376.372 101.019C376.261 101.056 376.143 101.086 376.02 101.111C375.909 101.148 375.767 101.167 375.594 101.167C375.297 101.167 375.05 101.099 374.853 100.963C374.655 100.827 374.556 100.623 374.556 100.352C374.556 100.228 374.575 100.105 374.612 99.9811C374.661 99.8453 374.711 99.6971 374.76 99.5365C374.896 99.1166 375.069 98.6041 375.279 97.9989C375.489 97.3814 375.723 96.7145 375.983 95.9982C376.242 95.2819 376.508 94.5595 376.779 93.8308C377.051 93.0898 377.31 92.3797 377.557 91.7004C377.817 91.0212 378.045 90.4284 378.243 89.922C378.366 89.8603 378.558 89.7985 378.817 89.7368C379.076 89.6627 379.336 89.6256 379.595 89.6256C379.941 89.6256 380.256 89.675 380.54 89.7738C380.836 89.8726 381.021 90.0394 381.096 90.274C381.38 90.9656 381.676 91.7622 381.985 92.6637C382.306 93.5529 382.627 94.4792 382.948 95.4425C383.282 96.4058 383.596 97.3444 383.893 98.2583C384.189 99.1722 384.455 99.9996 384.689 100.741C384.591 100.864 384.449 100.963 384.263 101.037C384.078 101.111 383.874 101.148 383.652 101.148C383.319 101.148 383.078 101.086 382.93 100.963C382.781 100.827 382.658 100.617 382.559 100.333L381.688 97.6284L381.485 96.7578C381.262 96.0662 381.034 95.3807 380.799 94.7015C380.577 94.0099 380.367 93.3739 380.169 92.7934C379.972 92.2006 379.805 91.7004 379.669 91.2929ZM376.575 98.1657L377.261 96.6096H382.152L382.466 98.1657H376.575ZM386.72 93.9049H388.646V100.963C388.572 100.988 388.449 101.019 388.276 101.056C388.115 101.093 387.942 101.111 387.757 101.111C387.399 101.111 387.133 101.043 386.96 100.907C386.8 100.759 386.72 100.525 386.72 100.203V93.9049ZM388.646 95.9056H386.72V89.7553C386.806 89.7306 386.929 89.7059 387.09 89.6812C387.263 89.6442 387.442 89.6256 387.627 89.6256C387.985 89.6256 388.245 89.6936 388.405 89.8294C388.566 89.9529 388.646 90.1814 388.646 90.5148V95.9056ZM391.766 91.6634L393.452 91.5708C393.502 92.003 393.545 92.4785 393.582 92.9972C393.619 93.5159 393.644 94.0408 393.656 94.5718C393.668 95.0905 393.675 95.5907 393.675 96.0723V100.963C393.6 100.988 393.477 101.019 393.304 101.056C393.143 101.093 392.977 101.111 392.804 101.111C392.446 101.111 392.18 101.043 392.007 100.907C391.847 100.772 391.766 100.549 391.766 100.24V91.6634ZM401.01 99.0734L399.306 99.1475C399.195 98.1595 399.127 97.1715 399.102 96.1835C399.09 95.1831 399.084 94.2198 399.084 93.2936V89.7553C399.183 89.7306 399.312 89.7059 399.473 89.6812C399.633 89.6442 399.8 89.6256 399.973 89.6256C400.331 89.6256 400.591 89.6936 400.751 89.8294C400.924 89.9529 401.01 90.1752 401.01 90.4963V99.0734ZM401.01 98.4065V97.7581V100.741C400.887 100.852 400.714 100.938 400.492 101C400.282 101.074 400.041 101.111 399.769 101.111C399.436 101.111 399.139 101.056 398.88 100.944C398.621 100.821 398.392 100.574 398.195 100.203L395.101 94.8312C394.928 94.5101 394.743 94.1704 394.545 93.8123C394.36 93.4541 394.181 93.1083 394.008 92.7749C393.835 92.4414 393.693 92.1512 393.582 91.9042L391.766 92.3303V90.0517C391.89 89.9159 392.063 89.8109 392.285 89.7368C392.507 89.6627 392.748 89.6256 393.008 89.6256C393.341 89.6256 393.637 89.6874 393.897 89.8109C394.156 89.9344 394.385 90.1752 394.582 90.5334L397.694 95.9056C397.88 96.2144 398.065 96.554 398.25 96.9245C398.435 97.2826 398.608 97.6284 398.769 97.9619C398.942 98.2953 399.084 98.5856 399.195 98.8326L401.01 98.4065ZM411.889 91.2929H411.796C411.636 91.7745 411.438 92.3365 411.203 92.9787C410.981 93.6085 410.753 94.2692 410.518 94.9608C410.283 95.6401 410.061 96.2823 409.851 96.8874L409.684 97.6284C409.61 97.8507 409.524 98.1163 409.425 98.425C409.326 98.7338 409.221 99.0549 409.11 99.3883C409.011 99.7094 408.913 100.012 408.814 100.296C408.715 100.58 408.641 100.821 408.591 101.019C408.48 101.056 408.363 101.086 408.239 101.111C408.128 101.148 407.986 101.167 407.813 101.167C407.517 101.167 407.27 101.099 407.072 100.963C406.875 100.827 406.776 100.623 406.776 100.352C406.776 100.228 406.795 100.105 406.832 99.9811C406.881 99.8453 406.93 99.6971 406.98 99.5365C407.116 99.1166 407.289 98.6041 407.498 97.9989C407.708 97.3814 407.943 96.7145 408.202 95.9982C408.462 95.2819 408.727 94.5595 408.999 93.8308C409.271 93.0898 409.53 92.3797 409.777 91.7004C410.036 91.0212 410.265 90.4284 410.462 89.922C410.586 89.8603 410.777 89.7985 411.037 89.7368C411.296 89.6627 411.555 89.6256 411.815 89.6256C412.161 89.6256 412.476 89.675 412.76 89.7738C413.056 89.8726 413.241 90.0394 413.315 90.274C413.599 90.9656 413.896 91.7622 414.205 92.6637C414.526 93.5529 414.847 94.4792 415.168 95.4425C415.501 96.4058 415.816 97.3444 416.113 98.2583C416.409 99.1722 416.675 99.9996 416.909 100.741C416.81 100.864 416.668 100.963 416.483 101.037C416.298 101.111 416.094 101.148 415.872 101.148C415.538 101.148 415.298 101.086 415.149 100.963C415.001 100.827 414.878 100.617 414.779 100.333L413.908 97.6284L413.704 96.7578C413.482 96.0662 413.254 95.3807 413.019 94.7015C412.797 94.0099 412.587 93.3739 412.389 92.7934C412.191 92.2006 412.025 91.7004 411.889 91.2929ZM408.795 98.1657L409.481 96.6096H414.371L414.686 98.1657H408.795ZM418.939 93.9049H420.866V100.963C420.792 100.988 420.668 101.019 420.495 101.056C420.335 101.093 420.162 101.111 419.977 101.111C419.619 101.111 419.353 101.043 419.18 100.907C419.02 100.759 418.939 100.525 418.939 100.203V93.9049ZM420.866 95.9056H418.939V89.7553C419.026 89.7306 419.149 89.7059 419.31 89.6812C419.483 89.6442 419.662 89.6256 419.847 89.6256C420.205 89.6256 420.464 89.6936 420.625 89.8294C420.786 89.9529 420.866 90.1814 420.866 90.5148V95.9056ZM430.233 96.591L428.436 97.1653C428.288 97.0542 428.158 96.906 428.047 96.7207C427.948 96.5355 427.899 96.3379 427.899 96.1279C427.899 95.9056 427.96 95.7327 428.084 95.6092C428.207 95.4857 428.411 95.3807 428.695 95.2943L429.918 94.9053C430.671 94.6583 431.233 94.3372 431.604 93.942C431.986 93.5344 432.178 92.991 432.178 92.3118C432.178 91.719 431.968 91.2064 431.548 90.7742C431.14 90.3296 430.504 90.1073 429.64 90.1073C429.183 90.1073 428.738 90.1876 428.306 90.3481C427.874 90.4963 427.491 90.7124 427.158 90.9965C427.009 90.8853 426.886 90.7557 426.787 90.6075C426.688 90.4593 426.639 90.2802 426.639 90.0702C426.639 89.7738 426.775 89.5083 427.046 89.2737C427.318 89.0267 427.689 88.8352 428.158 88.6994C428.64 88.5512 429.183 88.4771 429.788 88.4771C430.69 88.4771 431.462 88.6438 432.104 88.9773C432.758 89.2984 433.252 89.7491 433.586 90.3296C433.932 90.8977 434.104 91.5584 434.104 92.3118C434.104 93.0651 433.962 93.7135 433.678 94.2569C433.394 94.8003 432.962 95.2572 432.382 95.6277C431.814 95.9982 431.097 96.3193 430.233 96.591ZM428.084 100.037C428.084 99.6909 428.189 99.4068 428.399 99.1845C428.621 98.9499 428.917 98.8326 429.288 98.8326C429.671 98.8326 429.967 98.9499 430.177 99.1845C430.387 99.4068 430.492 99.6909 430.492 100.037C430.492 100.37 430.387 100.654 430.177 100.889C429.967 101.111 429.671 101.222 429.288 101.222C428.917 101.222 428.621 101.111 428.399 100.889C428.189 100.654 428.084 100.37 428.084 100.037Z" fill="#363636"/>
</g>
<defs>
<filter id="filter0_d_146_1014" x="0.3" y="0.3" width="583.4" height="184.4" filterUnits="userSpaceOnUse" color-interpolation-filters="sRGB">
<feFlood flood-opacity="0" result="BackgroundImageFix"/>
<feColorMatrix in="SourceAlpha" type="matrix" values="0 0 0 0 0 0 0 0 0 0 0 0 0 0 0 0 0 0 127 0" result="hardAlpha"/>
<feOffset dy="4"/>
<feGaussianBlur stdDeviation="3.35"/>
<feComposite in2="hardAlpha" operator="out"/>
<feColorMatrix type="matrix" values="0 0 0 0 0 0 0 0 0 0 0 0 0 0 0 0 0 0 0.25 0"/>
<feBlend mode="normal" in2="BackgroundImageFix" result="effect1_dropShadow_146_1014"/>
<feBlend mode="normal" in="SourceGraphic" in2="effect1_dropShadow_146_1014" result="shape"/>
</filter>
<filter id="filter1_d_146_1014" x="535.001" y="135.003" width="44" height="44" filterUnits="userSpaceOnUse" color-interpolation-filters="sRGB">
<feFlood flood-opacity="0" result="BackgroundImageFix"/>
<feColorMatrix in="SourceAlpha" type="matrix" values="0 0 0 0 0 0 0 0 0 0 0 0 0 0 0 0 0 0 127 0" result="hardAlpha"/>
<feOffset dy="4"/>
<feGaussianBlur stdDeviation="2"/>
<feComposite in2="hardAlpha" operator="out"/>
<feColorMatrix type="matrix" values="0 0 0 0 0 0 0 0 0 0 0 0 0 0 0 0 0 0 0.25 0"/>
<feBlend mode="normal" in2="BackgroundImageFix" result="effect1_dropShadow_146_1014"/>
<feBlend mode="normal" in="SourceGraphic" in2="effect1_dropShadow_146_1014" result="shape"/>
</filter>
<clipPath id="clip0_146_1014">
<rect width="414.675" height="168.15" fill="white" transform="translate(162.325 4.42499)"/>
</clipPath>
<clipPath id="clip1_146_1014">
<rect x="7" y="3" width="169.575" height="171" rx="84.7875" fill="white"/>
</clipPath>
</defs>
</svg>
