<svg width="62" height="65" viewBox="0 0 62 65" fill="none" xmlns="http://www.w3.org/2000/svg">
<g filter="url(#filter0_d_146_1009)">
<rect x="7" y="55" width="50" height="48" rx="4.58198" transform="rotate(-90 7 55)" fill="#F8F8F8" shape-rendering="crispEdges"/>
<path d="M20.0654 27.5701C20.0654 22.9882 20.0654 20.6973 21.4888 19.2739C22.9122 17.8505 25.2032 17.8505 29.7851 17.8505H32.215C36.7968 17.8505 39.0878 17.8505 40.5111 19.2739C41.9346 20.6973 41.9346 22.9882 41.9346 27.5701V32.4299C41.9346 37.0117 41.9346 39.3028 40.5111 40.7261C39.0878 42.1495 36.7968 42.1495 32.215 42.1495H29.7851C25.2032 42.1495 22.9122 42.1495 21.4888 40.7261C20.0654 39.3028 20.0654 37.0117 20.0654 32.4299V27.5701Z" stroke="#553C9A" stroke-width="1.82243"/>
<path d="M26.1401 30H35.8598" stroke="#553C9A" stroke-width="1.82243" stroke-linecap="round"/>
<path d="M26.1401 25.1401H35.8598" stroke="#553C9A" stroke-width="1.82243" stroke-linecap="round"/>
<path d="M26.1401 34.8599H32.2149" stroke="#553C9A" stroke-width="1.82243" stroke-linecap="round"/>
</g>
<defs>
<filter id="filter0_d_146_1009" x="0.127025" y="0.418017" width="61.7459" height="63.7459" filterUnits="userSpaceOnUse" color-interpolation-filters="sRGB">
<feFlood flood-opacity="0" result="BackgroundImageFix"/>
<feColorMatrix in="SourceAlpha" type="matrix" values="0 0 0 0 0 0 0 0 0 0 0 0 0 0 0 0 0 0 127 0" result="hardAlpha"/>
<feOffset dy="2.29099"/>
<feGaussianBlur stdDeviation="3.43649"/>
<feComposite in2="hardAlpha" operator="out"/>
<feColorMatrix type="matrix" values="0 0 0 0 0 0 0 0 0 0 0 0 0 0 0 0 0 0 0.15 0"/>
<feBlend mode="normal" in2="BackgroundImageFix" result="effect1_dropShadow_146_1009"/>
<feBlend mode="normal" in="SourceGraphic" in2="effect1_dropShadow_146_1009" result="shape"/>
</filter>
</defs>
</svg>
